<svg xmlns="http://www.w3.org/2000/svg" width="670" height="342" font-family="Segoe UI, Arial">
<rect width="670" height="342" fill="#ffffff"/>
<text x="26" y="26" font-size="15" font-weight="800" fill="#0b1324">Object reanchoring of the grid phase, inside the core cortex &#8212; a double dissociation</text>
<text x="26" y="44" font-size="10.5" fill="#5b6b8c">allocentric decode error (lower=better). Open field: only the OBJECT cue rescues drift; near a wall: only the BOUNDARY cue does; shuffled-anchor control fails.</text>
<line x1="62" y1="258" x2="300" y2="258" stroke="#33415c"/>
<rect x="70" y="213.1" width="53" height="44.9" fill="#c9341a" opacity="0.88"/>
<text x="96" y="209" font-size="9" font-weight="700" fill="#0b1324" text-anchor="middle">0.96</text>
<text x="96" y="271" font-size="8" fill="#5b6b8c" text-anchor="middle" transform="rotate(0)">path-int</text>
<rect x="127" y="225.0" width="53" height="33.0" fill="#e6a000" opacity="0.88"/>
<text x="154" y="221" font-size="9" font-weight="700" fill="#0b1324" text-anchor="middle">0.70</text>
<text x="154" y="271" font-size="8" fill="#5b6b8c" text-anchor="middle" transform="rotate(0)">boundary</text>
<rect x="184" y="252.0" width="53" height="6.0" fill="#2ca25f" opacity="0.88"/>
<text x="210" y="248" font-size="9" font-weight="700" fill="#0b1324" text-anchor="middle">0.13</text>
<text x="210" y="271" font-size="8" fill="#5b6b8c" text-anchor="middle" transform="rotate(0)">object</text>
<rect x="241" y="147.2" width="53" height="110.8" fill="#8a94a6" opacity="0.88"/>
<text x="268" y="143" font-size="9" font-weight="700" fill="#0b1324" text-anchor="middle">2.37</text>
<text x="268" y="271" font-size="8" fill="#5b6b8c" text-anchor="middle" transform="rotate(0)">shuffled obj</text>
<text x="185" y="290" font-size="11" font-weight="700" fill="#28324a" text-anchor="middle">OPEN FIELD (walls far)</text>
<line x1="352" y1="258" x2="590" y2="258" stroke="#33415c"/>
<rect x="360" y="144.3" width="53" height="113.7" fill="#c9341a" opacity="0.88"/>
<text x="386" y="140" font-size="9" font-weight="700" fill="#0b1324" text-anchor="middle">2.43</text>
<text x="386" y="271" font-size="8" fill="#5b6b8c" text-anchor="middle" transform="rotate(0)">path-int</text>
<rect x="417" y="220.8" width="53" height="37.2" fill="#e6a000" opacity="0.88"/>
<text x="444" y="217" font-size="9" font-weight="700" fill="#0b1324" text-anchor="middle">0.80</text>
<text x="444" y="271" font-size="8" fill="#5b6b8c" text-anchor="middle" transform="rotate(0)">boundary</text>
<rect x="474" y="253.6" width="53" height="4.4" fill="#2ca25f" opacity="0.88"/>
<text x="500" y="250" font-size="9" font-weight="700" fill="#0b1324" text-anchor="middle">0.09</text>
<text x="500" y="271" font-size="8" fill="#5b6b8c" text-anchor="middle" transform="rotate(0)">object</text>
<rect x="531" y="88.5" width="53" height="169.5" fill="#8a94a6" opacity="0.88"/>
<text x="558" y="85" font-size="9" font-weight="700" fill="#0b1324" text-anchor="middle">3.62</text>
<text x="558" y="271" font-size="8" fill="#5b6b8c" text-anchor="middle" transform="rotate(0)">shuffled obj</text>
<text x="475" y="290" font-size="11" font-weight="700" fill="#28324a" text-anchor="middle">NEAR A WALL</text>
</svg>