<svg xmlns="http://www.w3.org/2000/svg" width="750" height="342" font-family="Segoe UI, Arial">
<rect width="750" height="342" fill="#ffffff"/>
<text x="26" y="24" font-size="15" font-weight="800" fill="#0b1324">BTSP: one plateau, a one-shot PREDICTIVE place field</text>
<text x="26" y="42" font-size="10.5" fill="#5b6b8c">a seconds-wide asymmetric kernel shifts the field UPSTREAM of the plateau (predictive); measured, not trained</text>
<line x1="60" y1="268" x2="360" y2="268" stroke="#33415c"/>
<line x1="210" y1="58" x2="210" y2="268" stroke="#9aa6bd" stroke-dasharray="4 3"/>
<text x="210" y="55" font-size="9" fill="#7787a6" text-anchor="middle">plateau x=150</text>
<polyline points="60.0,265.4 61.0,264.9 62.0,264.3 63.0,263.8 64.0,263.3 65.0,262.9 66.0,262.5 67.0,262.1 68.0,261.8 69.0,261.6 70.0,261.3 71.0,261.1 72.0,260.8 73.0,260.6 74.0,260.4 75.0,260.2 76.0,260.0 77.0,259.8 78.0,259.6 79.0,259.3 80.0,259.1 81.0,258.9 82.0,258.6 83.0,258.4 84.0,258.2 85.0,257.9 86.0,257.6 87.0,257.4 88.0,257.1 89.0,256.8 90.1,256.5 91.1,256.2 92.1,255.9 93.1,255.6 94.1,255.3 95.1,254.9 96.1,254.6 97.1,254.2 98.1,253.9 99.1,253.5 100.1,253.1 101.1,252.8 102.1,252.4 103.1,252.0 104.1,251.5 105.1,251.1 106.1,250.7 107.1,250.2 108.1,249.8 109.1,249.3 110.1,248.8 111.1,248.3 112.1,247.8 113.1,247.3 114.1,246.7 115.1,246.2 116.1,245.6 117.1,245.0 118.1,244.4 119.1,243.8 120.1,243.2 121.1,242.5 122.1,241.9 123.1,241.2 124.1,240.5 125.1,239.8 126.1,239.0 127.1,238.3 128.1,237.5 129.1,236.7 130.1,235.9 131.1,235.1 132.1,234.2 133.1,233.3 134.1,232.4 135.1,231.5 136.1,230.6 137.1,229.6 138.1,228.6 139.1,227.6 140.1,226.5 141.1,225.4 142.1,224.3 143.1,223.2 144.1,222.0 145.1,220.8 146.1,219.6 147.1,218.3 148.1,217.0 149.1,215.7 150.2,214.3 151.2,213.0 152.2,211.5 153.2,210.1 154.2,208.5 155.2,207.0 156.2,205.4 157.2,203.8 158.2,202.1 159.2,200.4 160.2,198.6 161.2,196.8 162.2,195.0 163.2,193.1 164.2,191.1 165.2,189.1 166.2,187.1 167.2,185.0 168.2,182.8 169.2,180.6 170.2,178.3 171.2,176.0 172.2,173.6 173.2,171.1 174.2,168.6 175.2,166.0 176.2,163.4 177.2,160.7 178.2,157.9 179.2,155.0 180.2,152.1 181.2,149.1 182.2,146.0 183.2,142.8 184.2,139.5 185.2,136.2 186.2,132.8 187.2,129.2 188.2,125.6 189.2,121.9 190.2,118.1 191.2,114.2 192.2,110.2 193.2,106.2 194.2,102.0 195.2,97.7 196.2,93.4 197.2,89.1 198.2,84.7 199.2,80.4 200.2,76.1 201.2,72.1 202.2,68.4 203.2,65.0 204.2,62.2 205.2,60.0 206.2,58.7 207.2,58.2 208.2,58.7 209.2,60.4 210.3,63.1 211.3,66.8 212.3,71.6 213.3,77.3 214.3,83.7 215.3,90.7 216.3,98.2 217.3,106.0 218.3,113.9 219.3,121.8 220.3,129.6 221.3,137.2 222.3,144.5 223.3,151.5 224.3,158.3 225.3,164.6 226.3,170.7 227.3,176.4 228.3,181.8 229.3,186.8 230.3,191.6 231.3,196.1 232.3,200.3 233.3,204.3 234.3,208.1 235.3,211.6 236.3,214.9 237.3,218.0 238.3,221.0 239.3,223.8 240.3,226.4 241.3,228.8 242.3,231.1 243.3,233.3 244.3,235.3 245.3,237.3 246.3,239.1 247.3,240.8 248.3,242.4 249.3,243.9 250.3,245.3 251.3,246.6 252.3,247.9 253.3,249.1 254.3,250.2 255.3,251.3 256.3,252.2 257.3,253.2 258.3,254.0 259.3,254.9 260.3,255.6 261.3,256.4 262.3,257.0 263.3,257.7 264.3,258.3 265.3,258.9 266.3,259.4 267.3,259.9 268.3,260.4 269.3,260.8 270.4,261.3 271.4,261.7 272.4,262.0 273.4,262.4 274.4,262.7 275.4,263.0 276.4,263.3 277.4,263.6 278.4,263.9 279.4,264.1 280.4,264.3 281.4,264.5 282.4,264.7 283.4,264.9 284.4,265.1 285.4,265.3 286.4,265.4 287.4,265.6 288.4,265.7 289.4,265.9 290.4,266.0 291.4,266.1 292.4,266.2 293.4,266.3 294.4,266.4 295.4,266.5 296.4,266.6 297.4,266.7 298.4,266.8 299.4,266.8 300.4,266.9 301.4,267.0 302.4,267.0 303.4,267.1 304.4,267.1 305.4,267.2 306.4,267.2 307.4,267.3 308.4,267.3 309.4,267.4 310.4,267.4 311.4,267.4 312.4,267.5 313.4,267.5 314.4,267.5 315.4,267.6 316.4,267.6 317.4,267.6 318.4,267.6 319.4,267.7 320.4,267.7 321.4,267.7 322.4,267.7 323.4,267.7 324.4,267.7 325.4,267.8 326.4,267.8 327.4,267.8 328.4,267.8 329.4,267.8 330.5,267.8 331.5,267.8 332.5,267.8 333.5,267.9 334.5,267.9 335.5,267.9 336.5,267.9 337.5,267.9 338.5,267.9 339.5,267.9 340.5,267.9 341.5,267.9 342.5,267.9 343.5,267.9 344.5,267.9 345.5,267.9 346.5,267.9 347.5,267.9 348.5,267.9 349.5,267.9 350.5,267.9 351.5,268.0 352.5,268.0 353.5,268.0 354.5,268.0 355.5,268.0 356.5,268.0 357.5,268.0 358.5,268.0 359.5,268.0" fill="none" stroke="#2ca25f" stroke-width="2.2" opacity="0.9"/>
<polyline points="60.0,267.5 61.0,267.4 62.0,267.3 63.0,267.2 64.0,267.1 65.0,267.0 66.0,266.9 67.0,266.8 68.0,266.8 69.0,266.7 70.0,266.6 71.0,266.6 72.0,266.5 73.0,266.4 74.0,266.4 75.0,266.3 76.0,266.2 77.0,266.2 78.0,266.1 79.0,266.0 80.0,266.0 81.0,265.9 82.0,265.8 83.0,265.7 84.0,265.6 85.0,265.5 86.0,265.4 87.0,265.3 88.0,265.2 89.0,265.1 90.1,265.0 91.1,264.9 92.1,264.8 93.1,264.7 94.1,264.6 95.1,264.4 96.1,264.3 97.1,264.2 98.1,264.0 99.1,263.9 100.1,263.7 101.1,263.5 102.1,263.4 103.1,263.2 104.1,263.0 105.1,262.8 106.1,262.6 107.1,262.4 108.1,262.2 109.1,262.0 110.1,261.8 111.1,261.5 112.1,261.3 113.1,261.0 114.1,260.8 115.1,260.5 116.1,260.2 117.1,259.9 118.1,259.6 119.1,259.3 120.1,259.0 121.1,258.6 122.1,258.3 123.1,257.9 124.1,257.5 125.1,257.1 126.1,256.7 127.1,256.3 128.1,255.9 129.1,255.4 130.1,254.9 131.1,254.4 132.1,253.9 133.1,253.4 134.1,252.8 135.1,252.3 136.1,251.7 137.1,251.1 138.1,250.4 139.1,249.8 140.1,249.1 141.1,248.4 142.1,247.6 143.1,246.8 144.1,246.0 145.1,245.2 146.1,244.3 147.1,243.5 148.1,242.5 149.1,241.6 150.2,240.6 151.2,239.5 152.2,238.5 153.2,237.3 154.2,236.2 155.2,235.0 156.2,233.7 157.2,232.4 158.2,231.1 159.2,229.7 160.2,228.2 161.2,226.7 162.2,225.2 163.2,223.6 164.2,221.9 165.2,220.1 166.2,218.3 167.2,216.4 168.2,214.5 169.2,212.5 170.2,210.4 171.2,208.2 172.2,205.9 173.2,203.6 174.2,201.2 175.2,198.6 176.2,196.0 177.2,193.3 178.2,190.5 179.2,187.5 180.2,184.5 181.2,181.3 182.2,178.1 183.2,174.7 184.2,171.1 185.2,167.5 186.2,163.7 187.2,159.7 188.2,155.6 189.2,151.4 190.2,147.0 191.2,142.4 192.2,137.7 193.2,132.8 194.2,127.7 195.2,122.5 196.2,117.1 197.2,111.5 198.2,105.9 199.2,100.2 200.2,94.4 201.2,88.7 202.2,83.2 203.2,77.9 204.2,72.9 205.2,68.5 206.2,64.7 207.2,61.7 208.2,59.5 209.2,58.3 210.3,58.0 211.3,58.7 212.3,60.5 213.3,63.1 214.3,66.5 215.3,70.7 216.3,75.4 217.3,80.5 218.3,85.9 219.3,91.6 220.3,97.3 221.3,103.0 222.3,108.7 223.3,114.3 224.3,119.8 225.3,125.1 226.3,130.3 227.3,135.3 228.3,140.1 229.3,144.7 230.3,149.2 231.3,153.5 232.3,157.7 233.3,161.7 234.3,165.6 235.3,169.3 236.3,172.9 237.3,176.4 238.3,179.7 239.3,182.9 240.3,186.0 241.3,189.0 242.3,191.9 243.3,194.7 244.3,197.3 245.3,199.9 246.3,202.4 247.3,204.8 248.3,207.1 249.3,209.3 250.3,211.4 251.3,213.5 252.3,215.5 253.3,217.4 254.3,219.2 255.3,221.0 256.3,222.7 257.3,224.4 258.3,226.0 259.3,227.5 260.3,229.0 261.3,230.4 262.3,231.8 263.3,233.1 264.3,234.4 265.3,235.6 266.3,236.8 267.3,237.9 268.3,239.0 269.3,240.0 270.4,241.1 271.4,242.0 272.4,243.0 273.4,243.9 274.4,244.8 275.4,245.6 276.4,246.4 277.4,247.2 278.4,248.0 279.4,248.7 280.4,249.4 281.4,250.1 282.4,250.7 283.4,251.4 284.4,252.0 285.4,252.6 286.4,253.1 287.4,253.7 288.4,254.2 289.4,254.7 290.4,255.2 291.4,255.6 292.4,256.1 293.4,256.5 294.4,256.9 295.4,257.3 296.4,257.7 297.4,258.1 298.4,258.5 299.4,258.8 300.4,259.2 301.4,259.5 302.4,259.8 303.4,260.1 304.4,260.4 305.4,260.6 306.4,260.9 307.4,261.2 308.4,261.4 309.4,261.7 310.4,261.9 311.4,262.1 312.4,262.3 313.4,262.5 314.4,262.7 315.4,262.9 316.4,263.1 317.4,263.3 318.4,263.5 319.4,263.6 320.4,263.8 321.4,263.9 322.4,264.1 323.4,264.2 324.4,264.4 325.4,264.5 326.4,264.6 327.4,264.7 328.4,264.9 329.4,265.0 330.5,265.1 331.5,265.2 332.5,265.3 333.5,265.4 334.5,265.5 335.5,265.6 336.5,265.7 337.5,265.8 338.5,265.8 339.5,265.9 340.5,266.0 341.5,266.1 342.5,266.1 343.5,266.2 344.5,266.3 345.5,266.3 346.5,266.4 347.5,266.5 348.5,266.5 349.5,266.6 350.5,266.7 351.5,266.7 352.5,266.8 353.5,266.9 354.5,267.0 355.5,267.1 356.5,267.2 357.5,267.3 358.5,267.4 359.5,267.5" fill="none" stroke="#3182bd" stroke-width="2.2" opacity="0.9"/>
<polyline points="60.0,268.0 61.0,268.0 62.0,268.0 63.0,268.0 64.0,268.0 65.0,268.0 66.0,268.0 67.0,268.0 68.0,268.0 69.0,268.0 70.0,268.0 71.0,268.0 72.0,268.0 73.0,268.0 74.0,268.0 75.0,268.0 76.0,268.0 77.0,268.0 78.0,268.0 79.0,268.0 80.0,268.0 81.0,268.0 82.0,268.0 83.0,268.0 84.0,268.0 85.0,268.0 86.0,268.0 87.0,268.0 88.0,268.0 89.0,268.0 90.1,268.0 91.1,268.0 92.1,268.0 93.1,268.0 94.1,268.0 95.1,268.0 96.1,268.0 97.1,268.0 98.1,268.0 99.1,268.0 100.1,268.0 101.1,268.0 102.1,268.0 103.1,268.0 104.1,268.0 105.1,268.0 106.1,268.0 107.1,268.0 108.1,268.0 109.1,268.0 110.1,268.0 111.1,268.0 112.1,268.0 113.1,268.0 114.1,268.0 115.1,268.0 116.1,268.0 117.1,268.0 118.1,268.0 119.1,268.0 120.1,268.0 121.1,268.0 122.1,268.0 123.1,268.0 124.1,268.0 125.1,268.0 126.1,268.0 127.1,268.0 128.1,268.0 129.1,268.0 130.1,268.0 131.1,268.0 132.1,268.0 133.1,268.0 134.1,268.0 135.1,268.0 136.1,268.0 137.1,268.0 138.1,268.0 139.1,268.0 140.1,268.0 141.1,268.0 142.1,268.0 143.1,268.0 144.1,268.0 145.1,268.0 146.1,268.0 147.1,268.0 148.1,268.0 149.1,268.0 150.2,268.0 151.2,268.0 152.2,268.0 153.2,268.0 154.2,268.0 155.2,268.0 156.2,268.0 157.2,268.0 158.2,268.0 159.2,268.0 160.2,268.0 161.2,268.0 162.2,268.0 163.2,268.0 164.2,268.0 165.2,268.0 166.2,268.0 167.2,268.0 168.2,268.0 169.2,268.0 170.2,268.0 171.2,268.0 172.2,268.0 173.2,268.0 174.2,268.0 175.2,268.0 176.2,268.0 177.2,268.0 178.2,268.0 179.2,268.0 180.2,268.0 181.2,268.0 182.2,268.0 183.2,268.0 184.2,268.0 185.2,268.0 186.2,268.0 187.2,268.0 188.2,268.0 189.2,268.0 190.2,267.9 191.2,267.9 192.2,267.8 193.2,267.7 194.2,267.5 195.2,267.2 196.2,266.8 197.2,266.2 198.2,265.3 199.2,264.2 200.2,262.8 201.2,261.1 202.2,259.1 203.2,256.9 204.2,254.6 205.2,252.2 206.2,250.0 207.2,248.1 208.2,246.7 209.2,245.9 210.3,245.7 211.3,246.2 212.3,247.3 213.3,249.0 214.3,251.1 215.3,253.4 216.3,255.8 217.3,258.0 218.3,260.2 219.3,262.0 220.3,263.6 221.3,264.8 222.3,265.8 223.3,266.5 224.3,267.0 225.3,267.4 226.3,267.6 227.3,267.8 228.3,267.9 229.3,267.9 230.3,268.0 231.3,268.0 232.3,268.0 233.3,268.0 234.3,268.0 235.3,268.0 236.3,268.0 237.3,268.0 238.3,268.0 239.3,268.0 240.3,268.0 241.3,268.0 242.3,268.0 243.3,268.0 244.3,268.0 245.3,268.0 246.3,268.0 247.3,268.0 248.3,268.0 249.3,268.0 250.3,268.0 251.3,268.0 252.3,268.0 253.3,268.0 254.3,268.0 255.3,268.0 256.3,268.0 257.3,268.0 258.3,268.0 259.3,268.0 260.3,268.0 261.3,268.0 262.3,268.0 263.3,268.0 264.3,268.0 265.3,268.0 266.3,268.0 267.3,268.0 268.3,268.0 269.3,268.0 270.4,268.0 271.4,268.0 272.4,268.0 273.4,268.0 274.4,268.0 275.4,268.0 276.4,268.0 277.4,268.0 278.4,268.0 279.4,268.0 280.4,268.0 281.4,268.0 282.4,268.0 283.4,268.0 284.4,268.0 285.4,268.0 286.4,268.0 287.4,268.0 288.4,268.0 289.4,268.0 290.4,268.0 291.4,268.0 292.4,268.0 293.4,268.0 294.4,268.0 295.4,268.0 296.4,268.0 297.4,268.0 298.4,268.0 299.4,268.0 300.4,268.0 301.4,268.0 302.4,268.0 303.4,268.0 304.4,268.0 305.4,268.0 306.4,268.0 307.4,268.0 308.4,268.0 309.4,268.0 310.4,268.0 311.4,268.0 312.4,268.0 313.4,268.0 314.4,268.0 315.4,268.0 316.4,268.0 317.4,268.0 318.4,268.0 319.4,268.0 320.4,268.0 321.4,268.0 322.4,268.0 323.4,268.0 324.4,268.0 325.4,268.0 326.4,268.0 327.4,268.0 328.4,268.0 329.4,268.0 330.5,268.0 331.5,268.0 332.5,268.0 333.5,268.0 334.5,268.0 335.5,268.0 336.5,268.0 337.5,268.0 338.5,268.0 339.5,268.0 340.5,268.0 341.5,268.0 342.5,268.0 343.5,268.0 344.5,268.0 345.5,268.0 346.5,268.0 347.5,268.0 348.5,268.0 349.5,268.0 350.5,268.0 351.5,268.0 352.5,268.0 353.5,268.0 354.5,268.0 355.5,268.0 356.5,268.0 357.5,268.0 358.5,268.0 359.5,268.0" fill="none" stroke="#c9341a" stroke-width="2.2" opacity="0.9"/>
<text x="210" y="284" font-size="9.5" fill="#5b6b8c" text-anchor="middle">track position &#8594; (run direction)</text>
<rect x="264" y="58" width="12" height="4" fill="#2ca25f"/><text x="280" y="62" font-size="9" fill="#28324a">BTSP (asym)</text>
<rect x="264" y="72" width="12" height="4" fill="#3182bd"/><text x="280" y="76" font-size="9" fill="#28324a">symmetric</text>
<rect x="264" y="86" width="12" height="4" fill="#c9341a"/><text x="280" y="90" font-size="9" fill="#28324a">STDP (ms)</text>
<text x="60" y="298" font-size="9" fill="#2ca25f">BTSP field peaks UPSTREAM of the plateau (predictive)</text>
<text x="430" y="54" font-size="11.5" font-weight="700" fill="#0b1324">(C) predictive shift &#8733; running speed</text>
<line x1="430" y1="66" x2="430" y2="248" stroke="#33415c"/>
<line x1="430" y1="66" x2="690.0" y2="66" stroke="#33415c" stroke-dasharray="3 3"/>
<text x="434" y="64" font-size="8.5" fill="#7787a6">0 (on plateau)</text>
<rect x="442" y="66" width="63" height="65.2" fill="#2ca25f" opacity="0.85"/>
<text x="473" y="143" font-size="9" font-weight="700" fill="#0b1324" text-anchor="middle">-8.0</text>
<text x="473" y="262" font-size="9" fill="#28324a" text-anchor="middle">v=15</text>
<rect x="529" y="66" width="63" height="104.9" fill="#2ca25f" opacity="0.85"/>
<text x="560" y="183" font-size="9" font-weight="700" fill="#0b1324" text-anchor="middle">-12.9</text>
<text x="560" y="262" font-size="9" fill="#28324a" text-anchor="middle">v=25</text>
<rect x="615" y="66" width="63" height="136.0" fill="#2ca25f" opacity="0.85"/>
<text x="647" y="214" font-size="9" font-weight="700" fill="#0b1324" text-anchor="middle">-16.7</text>
<text x="647" y="262" font-size="9" fill="#28324a" text-anchor="middle">v=40</text>
<text x="430" y="278" font-size="9" fill="#5b6b8c">upstream shift grows with speed (kernel is in TIME)</text>
</svg>