<svg xmlns="http://www.w3.org/2000/svg" width="654" height="328" font-family="Segoe UI, Arial">
<rect width="654" height="328" fill="#ffffff"/>
<text x="26" y="24" font-size="15" font-weight="800" fill="#0b1324">Conceptual grid: the frozen SPACE cortex exposes a 2-D metric (CPU de-risk, #8)</text>
<text x="26" y="42" font-size="10.5" fill="#5b6b8c">off-axis "closer" (where a 1-D code is wrong by construction) beats chance and collapses under shuffled positions; held-out decode generalizes</text>
<text x="60" y="56" font-size="11.5" font-weight="700" fill="#0b1324">(A) off-axis "closer" (readout-free, higher=better)</text>
<line x1="60" y1="250" x2="310" y2="250" stroke="#33415c"/>
<line x1="60" y1="167" x2="310" y2="167" stroke="#9aa6bd" stroke-dasharray="4 3"/>
<text x="308" y="164" font-size="8.5" fill="#9aa6bd" text-anchor="end">chance 0.5</text>
<rect x="100" y="142.2" width="62" height="107.8" fill="#2ca25f" opacity="0.9"/>
<text x="131" y="136" font-size="11" font-weight="700" fill="#0b1324" text-anchor="middle">0.649</text>
<text x="131" y="263" font-size="8.5" fill="#28324a" text-anchor="middle">frozen</text>
<text x="131" y="273" font-size="8.5" fill="#28324a" text-anchor="middle">code</text>
<rect x="204" y="167.4" width="62" height="82.6" fill="#c9341a" opacity="0.9"/>
<text x="235" y="161" font-size="11" font-weight="700" fill="#0b1324" text-anchor="middle">0.497</text>
<text x="235" y="263" font-size="8.5" fill="#28324a" text-anchor="middle">SHUFFLED</text>
<text x="235" y="273" font-size="8.5" fill="#28324a" text-anchor="middle">positions</text>
<text x="60" y="286" font-size="9" fill="#5b6b8c">a 1-D projection code is &#8804;0.5 on off-axis triples by construction</text>
<text x="384" y="56" font-size="11.5" font-weight="700" fill="#0b1324">(B) held-out 2-D decode error (lower=better)</text>
<line x1="384" y1="250" x2="634" y2="250" stroke="#33415c"/>
<rect x="424" y="219.1" width="62" height="30.9" fill="#2ca25f" opacity="0.9"/>
<text x="455" y="213" font-size="11" font-weight="700" fill="#0b1324" text-anchor="middle">0.63</text>
<text x="455" y="263" font-size="8.5" fill="#28324a" text-anchor="middle">held-out</text>
<text x="455" y="273" font-size="8.5" fill="#28324a" text-anchor="middle">concepts</text>
<rect x="528" y="84.0" width="62" height="166.0" fill="#c9341a" opacity="0.9"/>
<text x="559" y="78" font-size="11" font-weight="700" fill="#0b1324" text-anchor="middle">3.38</text>
<text x="559" y="263" font-size="8.5" fill="#28324a" text-anchor="middle">SHUFFLED</text>
<text x="559" y="273" font-size="8.5" fill="#28324a" text-anchor="middle">refit</text>
<text x="384" y="286" font-size="9" fill="#5b6b8c">units of concept spacing; fit on train concepts, tested on held-out</text>
</svg>