<svg xmlns="http://www.w3.org/2000/svg" width="762" height="270" font-family="Segoe UI, Arial">
<rect width="762" height="270" fill="#ffffff"/>
<text x="26" y="26" font-size="15" font-weight="800" fill="#0b1324">Content-binding: PURE vs CONJUNCTIVE (event&#215;time) time cells both emerge</text>
<text x="56" y="46" font-size="11" font-weight="700" fill="#28324a">PURE time cell (curves overlap across events; purity 0.80)</text>
<line x1="56" y1="202" x2="356" y2="202" stroke="#33415c"/>
<polyline points="56.0,143.8 62.1,87.0 68.2,60.0 74.4,61.9 80.5,79.3 86.6,111.4 92.7,153.4 98.9,187.9 105.0,200.7 111.1,202.0 117.2,202.0 123.3,202.0 129.5,202.0 135.6,202.0 141.7,202.0 147.8,202.0 154.0,202.0 160.1,202.0 166.2,202.0 172.3,202.0 178.4,202.0 184.6,202.0 190.7,202.0 196.8,202.0 202.9,202.0 209.1,202.0 215.2,202.0 221.3,202.0 227.4,202.0 233.6,202.0 239.7,202.0 245.8,202.0 251.9,202.0 258.0,202.0 264.2,202.0 270.3,202.0 276.4,202.0 282.5,202.0 288.7,202.0 294.8,202.0 300.9,202.0 307.0,202.0 313.1,202.0 319.3,202.0 325.4,202.0 331.5,202.0 337.6,202.0 343.8,202.0 349.9,202.0 356.0,202.0" fill="none" stroke="#e6550d" stroke-width="2"/>
<polyline points="56.0,182.1 62.1,181.6 68.2,185.0 74.4,187.0 80.5,189.9 86.6,192.3 92.7,194.8 98.9,195.9 105.0,197.7 111.1,198.3 117.2,198.7 123.3,199.5 129.5,200.3 135.6,200.7 141.7,201.2 147.8,201.3 154.0,201.5 160.1,201.6 166.2,201.5 172.3,201.5 178.4,201.5 184.6,201.4 190.7,201.9 196.8,202.0 202.9,202.0 209.1,202.0 215.2,202.0 221.3,202.0 227.4,202.0 233.6,202.0 239.7,202.0 245.8,202.0 251.9,202.0 258.0,202.0 264.2,202.0 270.3,202.0 276.4,202.0 282.5,202.0 288.7,202.0 294.8,202.0 300.9,202.0 307.0,202.0 313.1,202.0 319.3,202.0 325.4,202.0 331.5,202.0 337.6,202.0 343.8,202.0 349.9,202.0 356.0,202.0" fill="none" stroke="#2ca25f" stroke-width="2"/>
<polyline points="56.0,197.0 62.1,199.6 68.2,200.0 74.4,200.4 80.5,201.1 86.6,201.6 92.7,202.0 98.9,202.0 105.0,202.0 111.1,202.0 117.2,202.0 123.3,202.0 129.5,202.0 135.6,202.0 141.7,202.0 147.8,202.0 154.0,202.0 160.1,202.0 166.2,202.0 172.3,202.0 178.4,202.0 184.6,202.0 190.7,202.0 196.8,202.0 202.9,202.0 209.1,202.0 215.2,202.0 221.3,202.0 227.4,202.0 233.6,202.0 239.7,202.0 245.8,202.0 251.9,202.0 258.0,202.0 264.2,202.0 270.3,202.0 276.4,202.0 282.5,202.0 288.7,202.0 294.8,202.0 300.9,202.0 307.0,202.0 313.1,202.0 319.3,202.0 325.4,202.0 331.5,202.0 337.6,202.0 343.8,202.0 349.9,202.0 356.0,202.0" fill="none" stroke="#3182bd" stroke-width="2"/>
<text x="206" y="218" font-size="10" fill="#5b6b8c" text-anchor="middle">elapsed time &#8594;</text>
<text x="406" y="46" font-size="11" font-weight="700" fill="#28324a">CONJUNCTIVE cell (event-specific; purity -0.15)</text>
<line x1="406" y1="202" x2="706" y2="202" stroke="#33415c"/>
<polyline points="406.0,198.5 412.1,187.0 418.2,169.7 424.4,150.4 430.5,130.5 436.6,111.4 442.7,93.8 448.9,80.3 455.0,70.1 461.1,63.7 467.2,60.9 473.3,60.0 479.5,62.6 485.6,67.2 491.7,73.7 497.8,81.4 504.0,90.8 510.1,100.7 516.2,110.7 522.3,121.2 528.4,132.7 534.6,143.7 540.7,155.5 546.8,168.8 552.9,180.3 559.1,190.7 565.2,197.3 571.3,200.7 577.4,201.7 583.6,201.9 589.7,202.0 595.8,202.0 601.9,202.0 608.0,202.0 614.2,202.0 620.3,202.0 626.4,202.0 632.5,202.0 638.7,202.0 644.8,202.0 650.9,202.0 657.0,202.0 663.1,202.0 669.3,202.0 675.4,202.0 681.5,202.0 687.6,202.0 693.8,202.0 699.9,202.0 706.0,202.0" fill="none" stroke="#e6550d" stroke-width="2"/>
<polyline points="406.0,196.2 412.1,197.0 418.2,198.8 424.4,200.1 430.5,201.3 436.6,201.8 442.7,201.9 448.9,202.0 455.0,202.0 461.1,202.0 467.2,202.0 473.3,202.0 479.5,202.0 485.6,202.0 491.7,202.0 497.8,202.0 504.0,202.0 510.1,202.0 516.2,202.0 522.3,202.0 528.4,202.0 534.6,202.0 540.7,202.0 546.8,202.0 552.9,202.0 559.1,202.0 565.2,202.0 571.3,202.0 577.4,202.0 583.6,202.0 589.7,202.0 595.8,202.0 601.9,202.0 608.0,202.0 614.2,202.0 620.3,202.0 626.4,202.0 632.5,202.0 638.7,202.0 644.8,202.0 650.9,202.0 657.0,202.0 663.1,202.0 669.3,202.0 675.4,202.0 681.5,202.0 687.6,202.0 693.8,202.0 699.9,202.0 706.0,201.9" fill="none" stroke="#2ca25f" stroke-width="2"/>
<polyline points="406.0,201.8 412.1,201.4 418.2,200.8 424.4,199.7 430.5,197.8 436.6,195.5 442.7,194.2 448.9,194.0 455.0,194.7 461.1,196.2 467.2,197.8 473.3,199.5 479.5,200.9 485.6,201.6 491.7,201.9 497.8,201.8 504.0,201.9 510.1,202.0 516.2,202.0 522.3,202.0 528.4,201.9 534.6,201.9 540.7,201.9 546.8,201.9 552.9,201.9 559.1,202.0 565.2,201.9 571.3,201.7 577.4,201.7 583.6,201.3 589.7,200.6 595.8,199.7 601.9,198.5 608.0,196.9 614.2,194.8 620.3,193.4 626.4,191.5 632.5,191.4 638.7,191.1 644.8,191.6 650.9,192.2 657.0,193.5 663.1,194.5 669.3,196.3 675.4,198.0 681.5,199.4 687.6,200.3 693.8,201.0 699.9,201.5 706.0,201.8" fill="none" stroke="#3182bd" stroke-width="2"/>
<text x="556" y="218" font-size="10" fill="#5b6b8c" text-anchor="middle">elapsed time &#8594;</text>
<rect x="56" y="236" width="13" height="4" fill="#e6550d"/>
<text x="73" y="241" font-size="9.5" fill="#28324a">event 1</text>
<rect x="146" y="236" width="13" height="4" fill="#2ca25f"/>
<text x="163" y="241" font-size="9.5" fill="#28324a">event 2</text>
<rect x="236" y="236" width="13" height="4" fill="#3182bd"/>
<text x="253" y="241" font-size="9.5" fill="#28324a">event 3</text>
<text x="706" y="241" font-size="10.5" fill="#0b1324" text-anchor="end" font-weight="700">PURE 29% &#183; CONJUNCTIVE 71% &#183; decode WHAT 100% (chance 33%), WHEN 1.3 steps</text>
</svg>