<svg xmlns="http://www.w3.org/2000/svg" width="656" height="327" font-family="Segoe UI, Arial">
<rect width="656" height="327" fill="#ffffff"/>
<text x="26" y="24" font-size="15" font-weight="800" fill="#0b1324">Credit assignment without backprop (feedback alignment)</text>
<text x="26" y="42" font-size="10.5" fill="#5b6b8c">a fixed RANDOM backward pathway (no weight transport) matches backprop &#8212; because the weights align to it; shuffling it collapses learning</text>
<text x="62" y="54" font-size="11.5" font-weight="700" fill="#0b1324">(A) spatial decode error</text>
<line x1="62" y1="253" x2="312" y2="253" stroke="#33415c"/>
<line x1="62" y1="-46.8" x2="312" y2="-46.8" stroke="#9aa6bd" stroke-dasharray="4 3"/>
<rect x="82" y="135.6" width="52" height="117.4" fill="#3182bd" opacity="0.88"/>
<text x="108" y="130" font-size="11" font-weight="700" fill="#0b1324" text-anchor="middle">0.105</text>
<text x="108" y="267" font-size="9" fill="#28324a" text-anchor="middle">backprop</text>
<rect x="156" y="134.6" width="52" height="118.4" fill="#2ca25f" opacity="0.88"/>
<text x="182" y="129" font-size="11" font-weight="700" fill="#0b1324" text-anchor="middle">0.106</text>
<text x="182" y="267" font-size="9" fill="#28324a" text-anchor="middle">FEEDBACK</text>
<rect x="230" y="88.0" width="52" height="165.0" fill="#c9341a" opacity="0.88"/>
<text x="256" y="82" font-size="11" font-weight="700" fill="#0b1324" text-anchor="middle">0.147</text>
<text x="256" y="267" font-size="9" fill="#28324a" text-anchor="middle">shuffled</text>
<text x="62" y="283" font-size="9" fill="#5b6b8c">dashed = position-blind floor</text>
<text x="386" y="54" font-size="11.5" font-weight="700" fill="#0b1324">(B) weights align to the feedback</text>
<line x1="386" y1="253" x2="636" y2="253" stroke="#33415c"/>
<rect x="430" y="98.0" width="64" height="155.0" fill="#2ca25f" opacity="0.88"/>
<text x="462" y="92" font-size="11" font-weight="700" fill="#0b1324" text-anchor="middle">+0.07</text>
<text x="462" y="267" font-size="9" fill="#28324a" text-anchor="middle">FEEDBACK</text>
<rect x="530" y="245.5" width="64" height="7.5" fill="#c9341a" opacity="0.88"/>
<text x="562" y="240" font-size="11" font-weight="700" fill="#0b1324" text-anchor="middle">+0.00</text>
<text x="562" y="267" font-size="9" fill="#28324a" text-anchor="middle">shuffled</text>
<text x="386" y="283" font-size="9.5" fill="#5b6b8c">cos(W3, B3ᵀ), grown from ~0; rep CKA vs backprop FA 0.98 vs shuf 0.94</text>
</svg>