<svg xmlns="http://www.w3.org/2000/svg" width="590" height="320" font-family="Segoe UI, Arial">
<rect width="590" height="320" fill="#ffffff"/>
<text x="20" y="26" font-size="15" font-weight="800" fill="#0b1324">Embodiment: path integration from VISION (optic-flow self-motion)</text>
<rect x="20" y="56" width="230" height="230" fill="#0b1324"/>
<circle cx="59.1" cy="221.7" r="3" fill="#f6c945"/>
<circle cx="167.7" cy="261.5" r="3" fill="#f6c945"/>
<circle cx="180.3" cy="140.0" r="3" fill="#f6c945"/>
<circle cx="213.1" cy="116.6" r="3" fill="#f6c945"/>
<circle cx="52.2" cy="129.9" r="3" fill="#f6c945"/>
<circle cx="230.8" cy="136.5" r="3" fill="#f6c945"/>
<circle cx="199.6" cy="264.3" r="3" fill="#f6c945"/>
<circle cx="162.9" cy="66.3" r="3" fill="#f6c945"/>
<circle cx="104.0" cy="121.0" r="3" fill="#f6c945"/>
<circle cx="177.0" cy="152.3" r="3" fill="#f6c945"/>
<circle cx="197.0" cy="137.5" r="3" fill="#f6c945"/>
<circle cx="31.1" cy="184.3" r="3" fill="#f6c945"/>
<circle cx="84.8" cy="106.8" r="3" fill="#f6c945"/>
<circle cx="78.8" cy="221.8" r="3" fill="#f6c945"/>
<circle cx="170.6" cy="165.5" r="3" fill="#f6c945"/>
<circle cx="104.1" cy="236.9" r="3" fill="#f6c945"/>
<polyline points="135.0,171.0 136.6,158.2 134.4,143.9 138.9,130.0 129.9,140.6 127.2,130.2 139.0,126.3 133.1,128.0 117.8,135.3 116.0,127.5 127.0,113.3 140.7,125.3 157.0,138.3 166.6,124.8 180.4,140.0 180.1,119.8 178.3,142.1 166.6,124.9 179.2,123.4 188.6,104.3 181.5,107.6 167.0,96.9 155.4,99.1 155.6,85.8 134.8,85.8 132.9,94.2 144.6,95.3" fill="none" stroke="#2ca25f" stroke-width="2.4"/>
<polyline points="135.0,171.0 133.1,159.9 131.8,146.9 134.8,133.0 128.1,146.5 123.1,136.2 131.9,131.8 127.3,132.4 116.4,143.3 114.1,136.3 120.6,121.8 130.3,133.0 144.0,147.4 153.6,133.7 155.1,145.2 151.5,134.5 144.8,155.9 133.7,143.3 148.2,143.2 158.7,126.4 147.8,131.3 134.8,121.3 122.0,122.5 120.7,109.8 103.6,110.7 102.7,118.1 115.1,118.2" fill="none" stroke="#e6550d" stroke-width="2.0" stroke-dasharray="5,3"/>
<text x="20" y="304" font-size="10.5" fill="#5b6b8c">yellow = landmarks · green = true path · orange dashed = path reconstructed from vision alone</text>
<text x="320" y="50" font-size="11.5" fill="#28324a">position error vs path length</text>
<line x1="320" y1="286" x2="570" y2="286" stroke="#33415c"/><line x1="320" y1="56" x2="320" y2="286" stroke="#33415c"/>
<polyline points="320.0,284.5 403.3,284.2 486.7,283.5 570.0,282.7" fill="none" stroke="#2ca25f" stroke-width="2.4"/>
<circle cx="320.0" cy="284.5" r="3" fill="#2ca25f"/>
<circle cx="403.3" cy="284.2" r="3" fill="#2ca25f"/>
<circle cx="486.7" cy="283.5" r="3" fill="#2ca25f"/>
<circle cx="570.0" cy="282.7" r="3" fill="#2ca25f"/>
<polyline points="320.0,213.4 403.3,162.9 486.7,125.1 570.0,86.0" fill="none" stroke="#e6550d" stroke-width="2.4"/>
<circle cx="320.0" cy="213.4" r="3" fill="#e6550d"/>
<circle cx="403.3" cy="162.9" r="3" fill="#e6550d"/>
<circle cx="486.7" cy="125.1" r="3" fill="#e6550d"/>
<circle cx="570.0" cy="86.0" r="3" fill="#e6550d"/>
<text x="320.0" y="300.0" font-size="9" fill="#5b6b8c" text-anchor="middle">T=6</text>
<text x="403.3" y="300.0" font-size="9" fill="#5b6b8c" text-anchor="middle">T=12</text>
<text x="486.7" y="300.0" font-size="9" fill="#5b6b8c" text-anchor="middle">T=18</text>
<text x="570.0" y="300.0" font-size="9" fill="#5b6b8c" text-anchor="middle">T=24</text>
<rect x="420" y="62" width="13" height="4" fill="#2ca25f"/>
<text x="437" y="68" font-size="10.5" fill="#28324a">true velocity (ceiling)</text>
<rect x="420" y="80" width="13" height="4" fill="#e6550d"/>
<text x="437" y="86" font-size="10.5" fill="#28324a">from vision</text>
</svg>