<svg xmlns="http://www.w3.org/2000/svg" width="560" height="370" font-family="Segoe UI, Arial">
<rect width="560" height="370" fill="#ffffff"/>
<text x="28" y="26" font-size="15" font-weight="800" fill="#0b1324">Multi-map factual recall: remapping is necessary even for a TRAINED model</text>
<text x="28" y="44" font-size="11" fill="#5b6b8c">random (room, location) &#8594; item, shared classifier + learned room-id embedding &#183; mean &#177; 95% CI</text>
<line x1="60" y1="314" x2="440" y2="314" stroke="#33415c"/><line x1="60" y1="64" x2="60" y2="314" stroke="#33415c"/>
<line x1="60" y1="314.0" x2="440" y2="314.0" stroke="#eef2f8"/>
<text x="52" y="318.0" font-size="9" fill="#5b6b8c" text-anchor="end">0%</text>
<line x1="60" y1="251.5" x2="440" y2="251.5" stroke="#eef2f8"/>
<text x="52" y="255.5" font-size="9" fill="#5b6b8c" text-anchor="end">25%</text>
<line x1="60" y1="189.0" x2="440" y2="189.0" stroke="#eef2f8"/>
<text x="52" y="193.0" font-size="9" fill="#5b6b8c" text-anchor="end">50%</text>
<line x1="60" y1="126.5" x2="440" y2="126.5" stroke="#eef2f8"/>
<text x="52" y="130.5" font-size="9" fill="#5b6b8c" text-anchor="end">75%</text>
<line x1="60" y1="64.0" x2="440" y2="64.0" stroke="#eef2f8"/>
<text x="52" y="68.0" font-size="9" fill="#5b6b8c" text-anchor="end">100%</text>
<line x1="60" y1="282.8" x2="440" y2="282.8" stroke="#c9341a" stroke-dasharray="3,3" opacity="0.5"/>
<text x="440" y="279.8" font-size="8.5" fill="#c9341a" text-anchor="end">chance</text>
<text x="60.0" y="329.0" font-size="9" fill="#5b6b8c" text-anchor="middle">1</text>
<text x="136.0" y="329.0" font-size="9" fill="#5b6b8c" text-anchor="middle">2</text>
<text x="212.0" y="329.0" font-size="9" fill="#5b6b8c" text-anchor="middle">4</text>
<text x="288.0" y="329.0" font-size="9" fill="#5b6b8c" text-anchor="middle">8</text>
<text x="364.0" y="329.0" font-size="9" fill="#5b6b8c" text-anchor="middle">16</text>
<text x="440.0" y="329.0" font-size="9" fill="#5b6b8c" text-anchor="middle">32</text>
<text x="250" y="348" font-size="10.5" fill="#28324a" text-anchor="middle"># rooms / maps M</text>
<polygon points="60.0,62.4 136.0,64.0 212.0,64.0 288.0,63.8 364.0,64.0 440.0,63.9 440.0,64.7 364.0,64.0 288.0,64.6 212.0,64.0 136.0,64.0 60.0,69.0" fill="#e6550d" opacity="0.13"/>
<polyline points="60.0,65.7 136.0,64.0 212.0,64.0 288.0,64.2 364.0,64.0 440.0,64.2" fill="none" stroke="#e6550d" stroke-width="2.4"/>
<circle cx="60.0" cy="65.7" r="3" fill="#e6550d"/>
<circle cx="136.0" cy="64.0" r="3" fill="#e6550d"/>
<circle cx="212.0" cy="64.0" r="3" fill="#e6550d"/>
<circle cx="288.0" cy="64.2" r="3" fill="#e6550d"/>
<circle cx="364.0" cy="64.0" r="3" fill="#e6550d"/>
<circle cx="440.0" cy="64.2" r="3" fill="#e6550d"/>
<polygon points="60.0,64.0 136.0,64.0 212.0,64.0 288.0,64.0 364.0,64.0 440.0,64.0 440.0,64.0 364.0,64.0 288.0,64.0 212.0,64.0 136.0,64.0 60.0,64.0" fill="#3b528b" opacity="0.13"/>
<polyline points="60.0,64.0 136.0,64.0 212.0,64.0 288.0,64.0 364.0,64.0 440.0,64.0" fill="none" stroke="#3b528b" stroke-width="2.4"/>
<circle cx="60.0" cy="64.0" r="3" fill="#3b528b"/>
<circle cx="136.0" cy="64.0" r="3" fill="#3b528b"/>
<circle cx="212.0" cy="64.0" r="3" fill="#3b528b"/>
<circle cx="288.0" cy="64.0" r="3" fill="#3b528b"/>
<circle cx="364.0" cy="64.0" r="3" fill="#3b528b"/>
<circle cx="440.0" cy="64.0" r="3" fill="#3b528b"/>
<polygon points="60.0,62.7 136.0,65.1 212.0,68.6 288.0,70.5 364.0,73.9 440.0,90.7 440.0,107.5 364.0,81.0 288.0,81.2 212.0,77.7 136.0,76.2 60.0,78.7" fill="#9aa5b8" opacity="0.13"/>
<polyline points="60.0,70.7 136.0,70.7 212.0,73.2 288.0,75.9 364.0,77.4 440.0,99.1" fill="none" stroke="#9aa5b8" stroke-width="2.4"/>
<circle cx="60.0" cy="70.7" r="3" fill="#9aa5b8"/>
<circle cx="136.0" cy="70.7" r="3" fill="#9aa5b8"/>
<circle cx="212.0" cy="73.2" r="3" fill="#9aa5b8"/>
<circle cx="288.0" cy="75.9" r="3" fill="#9aa5b8"/>
<circle cx="364.0" cy="77.4" r="3" fill="#9aa5b8"/>
<circle cx="440.0" cy="99.1" r="3" fill="#9aa5b8"/>
<rect x="290" y="78" width="13" height="5" fill="#e6550d"/>
<text x="307" y="83" font-size="10" fill="#28324a">grid + remap</text>
<rect x="290" y="93" width="13" height="5" fill="#3b528b"/>
<text x="307" y="98" font-size="10" fill="#28324a">grid, no remap</text>
<rect x="290" y="108" width="13" height="5" fill="#9aa5b8"/>
<text x="307" y="113" font-size="10" fill="#28324a">additive (raw 2-D)</text>
</svg>