<svg xmlns="http://www.w3.org/2000/svg" width="650" height="332" font-family="Segoe UI, Arial">
<rect width="650" height="332" fill="#ffffff"/>
<text x="26" y="24" font-size="15" font-weight="800" fill="#0b1324">Neuromodulation: ACh encode/retrieve &amp; NE surprise remapping</text>
<text x="26" y="42" font-size="10.5" fill="#5b6b8c">high ACh encoding blocks intrusion of an overlapping memory (vs far floor); NE surprise remap is adaptive both ways &#8212; measured, not trained</text>
<text x="60" y="54" font-size="11.5" font-weight="700" fill="#0b1324">(A) intrusion on old memory</text>
<line x1="60" y1="258" x2="310" y2="258" stroke="#33415c"/>
<rect x="84" y="88.0" width="52" height="170.0" fill="#c9341a" opacity="0.88"/>
<text x="110" y="82" font-size="11" font-weight="700" fill="#0b1324" text-anchor="middle">+0.81</text>
<text x="110" y="272" font-size="9" fill="#28324a" text-anchor="middle">near</text>
<text x="110" y="283" font-size="9" fill="#28324a" text-anchor="middle">low ACh</text>
<rect x="158" y="168.7" width="52" height="89.3" fill="#2ca25f" opacity="0.88"/>
<text x="184" y="163" font-size="11" font-weight="700" fill="#0b1324" text-anchor="middle">+0.42</text>
<text x="184" y="272" font-size="9" fill="#28324a" text-anchor="middle">near</text>
<text x="184" y="283" font-size="9" fill="#28324a" text-anchor="middle">high ACh</text>
<rect x="232" y="253.6" width="52" height="4.4" fill="#9aa6bd" opacity="0.88"/>
<text x="258" y="248" font-size="11" font-weight="700" fill="#0b1324" text-anchor="middle">+0.02</text>
<text x="258" y="272" font-size="9" fill="#28324a" text-anchor="middle">far</text>
<text x="258" y="283" font-size="9" fill="#28324a" text-anchor="middle">floor</text>
<text x="380" y="54" font-size="11.5" font-weight="700" fill="#0b1324">(B) NE remap benefit vs no-reset</text>
<line x1="380" y1="258" x2="630" y2="258" stroke="#33415c"/>
<rect x="424" y="88.0" width="64" height="170.0" fill="#3182bd" opacity="0.88"/>
<text x="456" y="82" font-size="11" font-weight="700" fill="#0b1324" text-anchor="middle">+0.29</text>
<text x="456" y="272" font-size="9" fill="#28324a" text-anchor="middle">learn</text>
<text x="456" y="283" font-size="9" fill="#28324a" text-anchor="middle">new env</text>
<rect x="524" y="98.5" width="64" height="159.5" fill="#3182bd" opacity="0.88"/>
<text x="556" y="93" font-size="11" font-weight="700" fill="#0b1324" text-anchor="middle">+0.27</text>
<text x="556" y="272" font-size="9" fill="#28324a" text-anchor="middle">protect</text>
<text x="556" y="283" font-size="9" fill="#28324a" text-anchor="middle">old map</text>
<text x="380" y="292" font-size="9.5" fill="#5b6b8c">surprise = novelty not change (AUC 1.00); completion needs W_rec (+0.29)</text>
</svg>