<svg xmlns="http://www.w3.org/2000/svg" width="772" height="334" font-family="Segoe UI, Arial">
<rect width="772" height="334" fill="#ffffff"/>
<text x="26" y="24" font-size="15" font-weight="800" fill="#0b1324">A multi-reference-frame map: object-vector cells + grid reanchoring (H&#248;ydal 2019)</text>
<text x="26" y="42" font-size="10.5" fill="#5b6b8c">an object-relative goal whose object MOVES: the global map fails; an object-frame agent reanchors the grid and reaches it</text>
<text x="56" y="56" font-size="11.5" font-weight="700" fill="#0b1324">(B) reference-frame dissociation</text>
<line x1="50" y1="260" x2="356" y2="260" stroke="#33415c"/>
<text x="46" y="264" font-size="8.5" fill="#5b6b8c" text-anchor="end">0%</text>
<text x="46" y="164" font-size="8.5" fill="#5b6b8c" text-anchor="end">50%</text>
<text x="46" y="64" font-size="8.5" fill="#5b6b8c" text-anchor="end">100%</text>
<rect x="56" y="60.0" width="64" height="200.0" fill="#2ca25f" opacity="0.88"/>
<text x="88" y="55" font-size="12" font-weight="700" fill="#0b1324" text-anchor="middle">100%</text>
<text x="88" y="274" font-size="9" fill="#28324a" text-anchor="middle">object-frame</text>
<rect x="156" y="225.9" width="64" height="34.1" fill="#c9341a" opacity="0.88"/>
<text x="188" y="221" font-size="12" font-weight="700" fill="#0b1324" text-anchor="middle">17%</text>
<text x="188" y="274" font-size="9" fill="#28324a" text-anchor="middle">global-frame</text>
<rect x="256" y="230.1" width="64" height="29.9" fill="#e6a000" opacity="0.88"/>
<text x="288" y="225" font-size="12" font-weight="700" fill="#0b1324" text-anchor="middle">15%</text>
<text x="288" y="274" font-size="9" fill="#28324a" text-anchor="middle">&#8722;HD</text>
<text x="56" y="290" font-size="8.5" fill="#5b6b8c">object-vector decode err 0.03; grid reanchors by translating (match 0.000 vs un-shifted 0.07)</text>
<text x="448" y="56" font-size="11.5" font-weight="700" fill="#0b1324">(C) grid reanchors by translating with the object</text>
<line x1="442" y1="260" x2="748" y2="260" stroke="#33415c"/>
<rect x="468" y="260.0" width="80" height="1.0" fill="#2ca25f" opacity="0.88"/>
<text x="508" y="254" font-size="11" font-weight="700" fill="#0b1324" text-anchor="middle">0.000</text>
<text x="508" y="274" font-size="9" fill="#28324a" text-anchor="middle">match</text>
<text x="508" y="286" font-size="9" fill="#28324a" text-anchor="middle">(translated by &#916;)</text>
<text x="508" y="300" font-size="9" fill="#2ca25f" text-anchor="middle">&#10003; reanchors</text>
<rect x="618" y="106.2" width="80" height="153.8" fill="#c9341a" opacity="0.88"/>
<text x="658" y="101" font-size="11" font-weight="700" fill="#0b1324" text-anchor="middle">0.073</text>
<text x="658" y="274" font-size="9" fill="#28324a" text-anchor="middle">un-shifted</text>
<text x="658" y="286" font-size="9" fill="#28324a" text-anchor="middle">(object ignored)</text>
<text x="658" y="300" font-size="9" fill="#c9341a" text-anchor="middle">&#10007; mismatch</text>
<text x="448" y="74" font-size="9" fill="#7787a6">object-frame grid code error vs object displacement &#916;</text>
</svg>