<svg xmlns="http://www.w3.org/2000/svg" width="460" height="300" font-family="Segoe UI, Arial">
<rect width="460" height="300" fill="#ffffff"/>
<text x="28" y="26" font-size="15" font-weight="800" fill="#0b1324">Symbolic distance effect (relational inference)</text>
<text x="28" y="44" font-size="11.5" fill="#5b6b8c">accuracy vs rank-distance — far-apart pairs are EASIER (analog/spatial code)</text>
<line x1="56" y1="244" x2="404" y2="244" stroke="#33415c"/><line x1="56" y1="56" x2="56" y2="244" stroke="#33415c"/>
<line x1="53" y1="213.7" x2="404" y2="213.7" stroke="#e8edf5"/>
<text x="26" y="217.7" font-size="10" fill="#5b6b8c">50%</text>
<line x1="53" y1="137.9" x2="404" y2="137.9" stroke="#e8edf5"/>
<text x="26" y="141.9" font-size="10" fill="#5b6b8c">75%</text>
<line x1="53" y1="62.1" x2="404" y2="62.1" stroke="#e8edf5"/>
<text x="26" y="66.1" font-size="10" fill="#5b6b8c">100%</text>
<text x="230.0" y="284" font-size="11" fill="#28324a" text-anchor="middle">rank distance |i−j|  (d=1 trained; d≥2 inferred)</text>
<polyline points="56.0,156.1 90.8,133.0 125.6,130.6 160.4,111.8 195.2,108.2 230.0,96.9 264.8,77.2 299.6,76.3 334.4,74.8 369.2,66.9 404.0,62.1" fill="none" stroke="#3b528b" stroke-width="2.5"/>
<circle cx="56.0" cy="156.1" r="3.5" fill="#9aa5b8"/>
<text x="56.0" y="258.0" font-size="9" fill="#5b6b8c" text-anchor="middle">1</text>
<circle cx="90.8" cy="133.0" r="3.5" fill="#e6550d"/>
<text x="90.8" y="258.0" font-size="9" fill="#5b6b8c" text-anchor="middle">2</text>
<circle cx="125.6" cy="130.6" r="3.5" fill="#e6550d"/>
<text x="125.6" y="258.0" font-size="9" fill="#5b6b8c" text-anchor="middle">3</text>
<circle cx="160.4" cy="111.8" r="3.5" fill="#e6550d"/>
<text x="160.4" y="258.0" font-size="9" fill="#5b6b8c" text-anchor="middle">4</text>
<circle cx="195.2" cy="108.2" r="3.5" fill="#e6550d"/>
<text x="195.2" y="258.0" font-size="9" fill="#5b6b8c" text-anchor="middle">5</text>
<circle cx="230.0" cy="96.9" r="3.5" fill="#e6550d"/>
<text x="230.0" y="258.0" font-size="9" fill="#5b6b8c" text-anchor="middle">6</text>
<circle cx="264.8" cy="77.2" r="3.5" fill="#e6550d"/>
<text x="264.8" y="258.0" font-size="9" fill="#5b6b8c" text-anchor="middle">7</text>
<circle cx="299.6" cy="76.3" r="3.5" fill="#e6550d"/>
<text x="299.6" y="258.0" font-size="9" fill="#5b6b8c" text-anchor="middle">8</text>
<circle cx="334.4" cy="74.8" r="3.5" fill="#e6550d"/>
<text x="334.4" y="258.0" font-size="9" fill="#5b6b8c" text-anchor="middle">9</text>
<circle cx="369.2" cy="66.9" r="3.5" fill="#e6550d"/>
<text x="369.2" y="258.0" font-size="9" fill="#5b6b8c" text-anchor="middle">10</text>
<circle cx="404.0" cy="62.1" r="3.5" fill="#e6550d"/>
<text x="404.0" y="258.0" font-size="9" fill="#5b6b8c" text-anchor="middle">11</text>
</svg>