<svg xmlns="http://www.w3.org/2000/svg" width="782" height="352" font-family="Segoe UI, Arial">
<rect width="782" height="352" fill="#ffffff"/>
<text x="20" y="26" font-size="15" font-weight="800" fill="#0b1324">Replay that computes: reverse sweep = credit assignment, forward rollout = planning</text>
<text x="20" y="58" font-size="11" font-weight="700" fill="#28324a">reverse replay — backup order radiates OUT from reward (dark = later)</text>
<rect x="20" y="66" width="20.5" height="20.5" fill="#6cae6a"/>
<rect x="40" y="66" width="20.5" height="20.5" fill="#88b95c"/>
<rect x="60" y="66" width="20.5" height="20.5" fill="#acc74b"/>
<rect x="80" y="66" width="20.5" height="20.5" fill="#d1d53a"/>
<rect x="100" y="66" width="20.5" height="20.5" fill="#a8c54d"/>
<rect x="120" y="66" width="20.5" height="20.5" fill="#84b75e"/>
<rect x="140" y="66" width="20.5" height="20.5" fill="#68ac6c"/>
<rect x="160" y="66" width="20.5" height="20.5" fill="#53a475"/>
<rect x="180" y="66" width="20.5" height="20.5" fill="#3f9c7f"/>
<rect x="200" y="66" width="20.5" height="20.5" fill="#2b9488"/>
<rect x="220" y="66" width="20.5" height="20.5" fill="#218f8c"/>
<rect x="20" y="86" width="20.5" height="20.5" fill="#80b660"/>
<rect x="40" y="86" width="20.5" height="20.5" fill="#a4c44f"/>
<rect x="60" y="86" width="20.5" height="20.5" fill="#cdd43c"/>
<rect x="80" y="86" width="20.5" height="20.5" fill="#ede12d"/>
<rect x="100" y="86" width="20.5" height="20.5" fill="#c9d23e"/>
<rect x="120" y="86" width="20.5" height="20.5" fill="#a0c251"/>
<rect x="140" y="86" width="20.5" height="20.5" fill="#7cb462"/>
<rect x="160" y="86" width="20.5" height="20.5" fill="#64aa6e"/>
<rect x="180" y="86" width="20.5" height="20.5" fill="#4fa277"/>
<rect x="200" y="86" width="20.5" height="20.5" fill="#3b9a81"/>
<rect x="220" y="86" width="20.5" height="20.5" fill="#27928a"/>
<rect x="20" y="106" width="20.5" height="20.5" fill="#9cc153"/>
<rect x="40" y="106" width="20.5" height="20.5" fill="#c4d140"/>
<rect x="60" y="106" width="20.5" height="20.5" fill="#e9df2f"/>
<rect x="80" y="106" width="20.5" height="20.5" fill="#fde725"/>
<rect x="100" y="106" width="20.5" height="20.5" fill="#e5dd30"/>
<rect x="120" y="106" width="20.5" height="20.5" fill="#c0cf42"/>
<rect x="140" y="106" width="20.5" height="20.5" fill="#98bf55"/>
<rect x="160" y="106" width="20.5" height="20.5" fill="#78b264"/>
<rect x="180" y="106" width="20.5" height="20.5" fill="#60a96f"/>
<rect x="200" y="106" width="20.5" height="20.5" fill="#4ba179"/>
<rect x="220" y="106" width="20.5" height="20.5" fill="#379983"/>
<rect x="20" y="126" width="20.5" height="20.5" fill="#bccd44"/>
<rect x="40" y="126" width="20.5" height="20.5" fill="#e1dc32"/>
<rect x="60" y="126" width="20.5" height="20.5" fill="#f9e527"/>
<rect x="80" y="126" width="20.5" height="20.5" fill="#440154"/>
<rect x="100" y="126" width="20.5" height="20.5" fill="#f5e429"/>
<rect x="120" y="126" width="20.5" height="20.5" fill="#ddda34"/>
<rect x="140" y="126" width="20.5" height="20.5" fill="#b8cc45"/>
<rect x="160" y="126" width="20.5" height="20.5" fill="#94bd57"/>
<rect x="180" y="126" width="20.5" height="20.5" fill="#74b166"/>
<rect x="200" y="126" width="20.5" height="20.5" fill="#5ca771"/>
<rect x="220" y="126" width="20.5" height="20.5" fill="#479f7b"/>
<rect x="20" y="146" width="20.5" height="20.5" fill="#90bc59"/>
<rect x="40" y="146" width="20.5" height="20.5" fill="#b4ca47"/>
<rect x="60" y="146" width="20.5" height="20.5" fill="#d9d936"/>
<rect x="80" y="146" width="20.5" height="20.5" fill="#f1e22b"/>
<rect x="100" y="146" width="20.5" height="20.5" fill="#d5d738"/>
<rect x="120" y="146" width="20.5" height="20.5" fill="#b0c949"/>
<rect x="140" y="146" width="20.5" height="20.5" fill="#8cba5a"/>
<rect x="160" y="146" width="20.5" height="20.5" fill="#70af68"/>
<rect x="180" y="146" width="20.5" height="20.5" fill="#57a673"/>
<rect x="200" y="146" width="20.5" height="20.5" fill="#439e7d"/>
<rect x="220" y="146" width="20.5" height="20.5" fill="#339784"/>
<rect x="200" y="166" width="20.5" height="20.5" fill="#2f9686"/>
<rect x="20" y="186" width="20.5" height="20.5" fill="#3b2663"/>
<rect x="40" y="186" width="20.5" height="20.5" fill="#383368"/>
<rect x="60" y="186" width="20.5" height="20.5" fill="#35406d"/>
<rect x="80" y="186" width="20.5" height="20.5" fill="#314d72"/>
<rect x="100" y="186" width="20.5" height="20.5" fill="#2e5d79"/>
<rect x="120" y="186" width="20.5" height="20.5" fill="#2a6d7f"/>
<rect x="140" y="186" width="20.5" height="20.5" fill="#267a84"/>
<rect x="160" y="186" width="20.5" height="20.5" fill="#248488"/>
<rect x="180" y="186" width="20.5" height="20.5" fill="#228c8b"/>
<rect x="200" y="186" width="20.5" height="20.5" fill="#23918c"/>
<rect x="220" y="186" width="20.5" height="20.5" fill="#23898a"/>
<rect x="20" y="206" width="20.5" height="20.5" fill="#3e195d"/>
<rect x="40" y="206" width="20.5" height="20.5" fill="#3c2362"/>
<rect x="60" y="206" width="20.5" height="20.5" fill="#383067"/>
<rect x="80" y="206" width="20.5" height="20.5" fill="#353d6c"/>
<rect x="100" y="206" width="20.5" height="20.5" fill="#324a71"/>
<rect x="120" y="206" width="20.5" height="20.5" fill="#2e5a78"/>
<rect x="140" y="206" width="20.5" height="20.5" fill="#2a6a7e"/>
<rect x="160" y="206" width="20.5" height="20.5" fill="#277783"/>
<rect x="180" y="206" width="20.5" height="20.5" fill="#258287"/>
<rect x="200" y="206" width="20.5" height="20.5" fill="#238789"/>
<rect x="220" y="206" width="20.5" height="20.5" fill="#257f86"/>
<rect x="20" y="226" width="20.5" height="20.5" fill="#410e59"/>
<rect x="40" y="226" width="20.5" height="20.5" fill="#3f165c"/>
<rect x="60" y="226" width="20.5" height="20.5" fill="#3c2061"/>
<rect x="80" y="226" width="20.5" height="20.5" fill="#392e66"/>
<rect x="100" y="226" width="20.5" height="20.5" fill="#363b6b"/>
<rect x="120" y="226" width="20.5" height="20.5" fill="#334870"/>
<rect x="140" y="226" width="20.5" height="20.5" fill="#2f5877"/>
<rect x="160" y="226" width="20.5" height="20.5" fill="#2b677d"/>
<rect x="180" y="226" width="20.5" height="20.5" fill="#287482"/>
<rect x="200" y="226" width="20.5" height="20.5" fill="#267c85"/>
<rect x="220" y="226" width="20.5" height="20.5" fill="#287281"/>
<rect x="20" y="246" width="20.5" height="20.5" fill="#430656"/>
<rect x="40" y="246" width="20.5" height="20.5" fill="#410b58"/>
<rect x="60" y="246" width="20.5" height="20.5" fill="#40135b"/>
<rect x="80" y="246" width="20.5" height="20.5" fill="#3d1e60"/>
<rect x="100" y="246" width="20.5" height="20.5" fill="#3a2b65"/>
<rect x="120" y="246" width="20.5" height="20.5" fill="#37386a"/>
<rect x="140" y="246" width="20.5" height="20.5" fill="#33456f"/>
<rect x="160" y="246" width="20.5" height="20.5" fill="#2f5575"/>
<rect x="180" y="246" width="20.5" height="20.5" fill="#2c657c"/>
<rect x="200" y="246" width="20.5" height="20.5" fill="#296f80"/>
<rect x="220" y="246" width="20.5" height="20.5" fill="#2c627b"/>
<rect x="20" y="266" width="20.5" height="20.5" fill="#440154"/>
<rect x="40" y="266" width="20.5" height="20.5" fill="#430455"/>
<rect x="60" y="266" width="20.5" height="20.5" fill="#420957"/>
<rect x="80" y="266" width="20.5" height="20.5" fill="#40115a"/>
<rect x="100" y="266" width="20.5" height="20.5" fill="#3e1b5e"/>
<rect x="120" y="266" width="20.5" height="20.5" fill="#3a2864"/>
<rect x="140" y="266" width="20.5" height="20.5" fill="#373569"/>
<rect x="160" y="266" width="20.5" height="20.5" fill="#34436e"/>
<rect x="180" y="266" width="20.5" height="20.5" fill="#305274"/>
<rect x="200" y="266" width="20.5" height="20.5" fill="#2d5f7a"/>
<rect x="220" y="266" width="20.5" height="20.5" fill="#315073"/>
<rect x="20" y="166" width="20" height="20" fill="#0b1324"/>
<rect x="40" y="166" width="20" height="20" fill="#0b1324"/>
<rect x="60" y="166" width="20" height="20" fill="#0b1324"/>
<rect x="80" y="166" width="20" height="20" fill="#0b1324"/>
<rect x="100" y="166" width="20" height="20" fill="#0b1324"/>
<rect x="120" y="166" width="20" height="20" fill="#0b1324"/>
<rect x="140" y="166" width="20" height="20" fill="#0b1324"/>
<rect x="160" y="166" width="20" height="20" fill="#0b1324"/>
<rect x="180" y="166" width="20" height="20" fill="#0b1324"/>
<rect x="220" y="166" width="20" height="20" fill="#0b1324"/>
<circle cx="90" cy="136" r="5" fill="#de2d26" stroke="#fff"/>
<text x="266" y="58" font-size="11" font-weight="700" fill="#28324a">forward replay — planning rollout routes around the wall to the goal</text>
<rect x="266" y="66" width="20.5" height="20.5" fill="#88b95c"/>
<rect x="286" y="66" width="20.5" height="20.5" fill="#99c054"/>
<rect x="306" y="66" width="20.5" height="20.5" fill="#abc74c"/>
<rect x="326" y="66" width="20.5" height="20.5" fill="#bece43"/>
<rect x="346" y="66" width="20.5" height="20.5" fill="#abc74c"/>
<rect x="366" y="66" width="20.5" height="20.5" fill="#99c054"/>
<rect x="386" y="66" width="20.5" height="20.5" fill="#88b95c"/>
<rect x="406" y="66" width="20.5" height="20.5" fill="#78b364"/>
<rect x="426" y="66" width="20.5" height="20.5" fill="#69ac6b"/>
<rect x="446" y="66" width="20.5" height="20.5" fill="#5aa772"/>
<rect x="466" y="66" width="20.5" height="20.5" fill="#4ca178"/>
<rect x="266" y="86" width="20.5" height="20.5" fill="#99c054"/>
<rect x="286" y="86" width="20.5" height="20.5" fill="#abc74c"/>
<rect x="306" y="86" width="20.5" height="20.5" fill="#bece43"/>
<rect x="326" y="86" width="20.5" height="20.5" fill="#d2d639"/>
<rect x="346" y="86" width="20.5" height="20.5" fill="#bece43"/>
<rect x="366" y="86" width="20.5" height="20.5" fill="#abc74c"/>
<rect x="386" y="86" width="20.5" height="20.5" fill="#99c054"/>
<rect x="406" y="86" width="20.5" height="20.5" fill="#88b95c"/>
<rect x="426" y="86" width="20.5" height="20.5" fill="#78b364"/>
<rect x="446" y="86" width="20.5" height="20.5" fill="#69ac6b"/>
<rect x="466" y="86" width="20.5" height="20.5" fill="#5aa772"/>
<rect x="266" y="106" width="20.5" height="20.5" fill="#abc74c"/>
<rect x="286" y="106" width="20.5" height="20.5" fill="#bece43"/>
<rect x="306" y="106" width="20.5" height="20.5" fill="#d2d639"/>
<rect x="326" y="106" width="20.5" height="20.5" fill="#e7de2f"/>
<rect x="346" y="106" width="20.5" height="20.5" fill="#d2d639"/>
<rect x="366" y="106" width="20.5" height="20.5" fill="#bece43"/>
<rect x="386" y="106" width="20.5" height="20.5" fill="#abc74c"/>
<rect x="406" y="106" width="20.5" height="20.5" fill="#99c054"/>
<rect x="426" y="106" width="20.5" height="20.5" fill="#88b95c"/>
<rect x="446" y="106" width="20.5" height="20.5" fill="#78b364"/>
<rect x="466" y="106" width="20.5" height="20.5" fill="#69ac6b"/>
<rect x="266" y="126" width="20.5" height="20.5" fill="#bece43"/>
<rect x="286" y="126" width="20.5" height="20.5" fill="#d2d639"/>
<rect x="306" y="126" width="20.5" height="20.5" fill="#e7de2f"/>
<rect x="326" y="126" width="20.5" height="20.5" fill="#fde725"/>
<rect x="346" y="126" width="20.5" height="20.5" fill="#e7de2f"/>
<rect x="366" y="126" width="20.5" height="20.5" fill="#d2d639"/>
<rect x="386" y="126" width="20.5" height="20.5" fill="#bece43"/>
<rect x="406" y="126" width="20.5" height="20.5" fill="#abc74c"/>
<rect x="426" y="126" width="20.5" height="20.5" fill="#99c054"/>
<rect x="446" y="126" width="20.5" height="20.5" fill="#88b95c"/>
<rect x="466" y="126" width="20.5" height="20.5" fill="#78b364"/>
<rect x="266" y="146" width="20.5" height="20.5" fill="#abc74c"/>
<rect x="286" y="146" width="20.5" height="20.5" fill="#bece43"/>
<rect x="306" y="146" width="20.5" height="20.5" fill="#d2d639"/>
<rect x="326" y="146" width="20.5" height="20.5" fill="#e7de2f"/>
<rect x="346" y="146" width="20.5" height="20.5" fill="#d2d639"/>
<rect x="366" y="146" width="20.5" height="20.5" fill="#bece43"/>
<rect x="386" y="146" width="20.5" height="20.5" fill="#abc74c"/>
<rect x="406" y="146" width="20.5" height="20.5" fill="#99c054"/>
<rect x="426" y="146" width="20.5" height="20.5" fill="#88b95c"/>
<rect x="446" y="146" width="20.5" height="20.5" fill="#78b364"/>
<rect x="466" y="146" width="20.5" height="20.5" fill="#69ac6b"/>
<rect x="446" y="166" width="20.5" height="20.5" fill="#69ac6b"/>
<rect x="266" y="186" width="20.5" height="20.5" fill="#287381"/>
<rect x="286" y="186" width="20.5" height="20.5" fill="#277984"/>
<rect x="306" y="186" width="20.5" height="20.5" fill="#257f86"/>
<rect x="326" y="186" width="20.5" height="20.5" fill="#248689"/>
<rect x="346" y="186" width="20.5" height="20.5" fill="#228c8c"/>
<rect x="366" y="186" width="20.5" height="20.5" fill="#27928a"/>
<rect x="386" y="186" width="20.5" height="20.5" fill="#339785"/>
<rect x="406" y="186" width="20.5" height="20.5" fill="#3f9c7f"/>
<rect x="426" y="186" width="20.5" height="20.5" fill="#4ca178"/>
<rect x="446" y="186" width="20.5" height="20.5" fill="#5aa772"/>
<rect x="466" y="186" width="20.5" height="20.5" fill="#4ca178"/>
<rect x="266" y="206" width="20.5" height="20.5" fill="#2a6d7f"/>
<rect x="286" y="206" width="20.5" height="20.5" fill="#287381"/>
<rect x="306" y="206" width="20.5" height="20.5" fill="#277984"/>
<rect x="326" y="206" width="20.5" height="20.5" fill="#257f86"/>
<rect x="346" y="206" width="20.5" height="20.5" fill="#248689"/>
<rect x="366" y="206" width="20.5" height="20.5" fill="#228c8c"/>
<rect x="386" y="206" width="20.5" height="20.5" fill="#27928a"/>
<rect x="406" y="206" width="20.5" height="20.5" fill="#339785"/>
<rect x="426" y="206" width="20.5" height="20.5" fill="#3f9c7f"/>
<rect x="446" y="206" width="20.5" height="20.5" fill="#4ca178"/>
<rect x="466" y="206" width="20.5" height="20.5" fill="#3f9c7f"/>
<rect x="266" y="226" width="20.5" height="20.5" fill="#2b687d"/>
<rect x="286" y="226" width="20.5" height="20.5" fill="#2a6d7f"/>
<rect x="306" y="226" width="20.5" height="20.5" fill="#287381"/>
<rect x="326" y="226" width="20.5" height="20.5" fill="#277984"/>
<rect x="346" y="226" width="20.5" height="20.5" fill="#257f86"/>
<rect x="366" y="226" width="20.5" height="20.5" fill="#248689"/>
<rect x="386" y="226" width="20.5" height="20.5" fill="#228c8c"/>
<rect x="406" y="226" width="20.5" height="20.5" fill="#27928a"/>
<rect x="426" y="226" width="20.5" height="20.5" fill="#339785"/>
<rect x="446" y="226" width="20.5" height="20.5" fill="#3f9c7f"/>
<rect x="466" y="226" width="20.5" height="20.5" fill="#339785"/>
<rect x="266" y="246" width="20.5" height="20.5" fill="#2c627b"/>
<rect x="286" y="246" width="20.5" height="20.5" fill="#2b687d"/>
<rect x="306" y="246" width="20.5" height="20.5" fill="#2a6d7f"/>
<rect x="326" y="246" width="20.5" height="20.5" fill="#287381"/>
<rect x="346" y="246" width="20.5" height="20.5" fill="#277984"/>
<rect x="366" y="246" width="20.5" height="20.5" fill="#257f86"/>
<rect x="386" y="246" width="20.5" height="20.5" fill="#248689"/>
<rect x="406" y="246" width="20.5" height="20.5" fill="#228c8c"/>
<rect x="426" y="246" width="20.5" height="20.5" fill="#27928a"/>
<rect x="446" y="246" width="20.5" height="20.5" fill="#339785"/>
<rect x="466" y="246" width="20.5" height="20.5" fill="#27928a"/>
<rect x="266" y="266" width="20.5" height="20.5" fill="#2d5e79"/>
<rect x="286" y="266" width="20.5" height="20.5" fill="#2c627b"/>
<rect x="306" y="266" width="20.5" height="20.5" fill="#2b687d"/>
<rect x="326" y="266" width="20.5" height="20.5" fill="#2a6d7f"/>
<rect x="346" y="266" width="20.5" height="20.5" fill="#287381"/>
<rect x="366" y="266" width="20.5" height="20.5" fill="#277984"/>
<rect x="386" y="266" width="20.5" height="20.5" fill="#257f86"/>
<rect x="406" y="266" width="20.5" height="20.5" fill="#248689"/>
<rect x="426" y="266" width="20.5" height="20.5" fill="#228c8c"/>
<rect x="446" y="266" width="20.5" height="20.5" fill="#27928a"/>
<rect x="466" y="266" width="20.5" height="20.5" fill="#228c8c"/>
<rect x="266" y="166" width="20" height="20" fill="#0b1324"/>
<rect x="286" y="166" width="20" height="20" fill="#0b1324"/>
<rect x="306" y="166" width="20" height="20" fill="#0b1324"/>
<rect x="326" y="166" width="20" height="20" fill="#0b1324"/>
<rect x="346" y="166" width="20" height="20" fill="#0b1324"/>
<rect x="366" y="166" width="20" height="20" fill="#0b1324"/>
<rect x="386" y="166" width="20" height="20" fill="#0b1324"/>
<rect x="406" y="166" width="20" height="20" fill="#0b1324"/>
<rect x="426" y="166" width="20" height="20" fill="#0b1324"/>
<rect x="466" y="166" width="20" height="20" fill="#0b1324"/>
<line x1="276" y1="276" x2="276" y2="256" stroke="#de2d26" stroke-width="2.4"/>
<line x1="276" y1="256" x2="276" y2="236" stroke="#de2d26" stroke-width="2.4"/>
<line x1="276" y1="236" x2="276" y2="216" stroke="#de2d26" stroke-width="2.4"/>
<line x1="276" y1="216" x2="276" y2="196" stroke="#de2d26" stroke-width="2.4"/>
<line x1="276" y1="196" x2="296" y2="196" stroke="#de2d26" stroke-width="2.4"/>
<line x1="296" y1="196" x2="316" y2="196" stroke="#de2d26" stroke-width="2.4"/>
<line x1="316" y1="196" x2="336" y2="196" stroke="#de2d26" stroke-width="2.4"/>
<line x1="336" y1="196" x2="356" y2="196" stroke="#de2d26" stroke-width="2.4"/>
<line x1="356" y1="196" x2="376" y2="196" stroke="#de2d26" stroke-width="2.4"/>
<line x1="376" y1="196" x2="396" y2="196" stroke="#de2d26" stroke-width="2.4"/>
<line x1="396" y1="196" x2="416" y2="196" stroke="#de2d26" stroke-width="2.4"/>
<line x1="416" y1="196" x2="436" y2="196" stroke="#de2d26" stroke-width="2.4"/>
<line x1="436" y1="196" x2="456" y2="196" stroke="#de2d26" stroke-width="2.4"/>
<line x1="456" y1="196" x2="456" y2="176" stroke="#de2d26" stroke-width="2.4"/>
<line x1="456" y1="176" x2="456" y2="156" stroke="#de2d26" stroke-width="2.4"/>
<line x1="456" y1="156" x2="456" y2="136" stroke="#de2d26" stroke-width="2.4"/>
<line x1="456" y1="136" x2="436" y2="136" stroke="#de2d26" stroke-width="2.4"/>
<line x1="436" y1="136" x2="416" y2="136" stroke="#de2d26" stroke-width="2.4"/>
<line x1="416" y1="136" x2="396" y2="136" stroke="#de2d26" stroke-width="2.4"/>
<line x1="396" y1="136" x2="376" y2="136" stroke="#de2d26" stroke-width="2.4"/>
<line x1="376" y1="136" x2="356" y2="136" stroke="#de2d26" stroke-width="2.4"/>
<line x1="356" y1="136" x2="336" y2="136" stroke="#de2d26" stroke-width="2.4"/>
<circle cx="276" cy="276" r="4.5" fill="#ffffff" stroke="#de2d26" stroke-width="2"/>
<circle cx="336" cy="136" r="5" fill="#de2d26" stroke="#fff"/>
<text x="524" y="58" font-size="11" font-weight="700" fill="#28324a">emergent signatures</text>
<rect x="524" y="66" width="46" height="220" fill="#2ca25f" opacity="0.85"/>
<text x="547" y="61" font-size="11" font-weight="700" fill="#0b1324" text-anchor="middle">1.00</text>
<text x="547" y="299" font-size="9" fill="#28324a" text-anchor="middle">rev</text>
<text x="547" y="310" font-size="9" fill="#28324a" text-anchor="middle">prio</text>
<rect x="576" y="176" width="46" height="110" fill="#c9341a" opacity="0.85"/>
<text x="599" y="171" font-size="11" font-weight="700" fill="#0b1324" text-anchor="middle">0.50</text>
<text x="599" y="299" font-size="9" fill="#28324a" text-anchor="middle">rev</text>
<text x="599" y="310" font-size="9" fill="#28324a" text-anchor="middle">rand</text>
<rect x="628" y="66" width="46" height="220" fill="#2b8cbe" opacity="0.85"/>
<text x="651" y="61" font-size="11" font-weight="700" fill="#0b1324" text-anchor="middle">1.00</text>
<text x="651" y="299" font-size="9" fill="#28324a" text-anchor="middle">fwd</text>
<text x="651" y="310" font-size="9" fill="#28324a" text-anchor="middle">plan</text>
<rect x="680" y="66" width="46" height="220" fill="#2ca25f" opacity="0.85"/>
<text x="703" y="61" font-size="11" font-weight="700" fill="#0b1324" text-anchor="middle">1.00</text>
<text x="703" y="299" font-size="9" fill="#28324a" text-anchor="middle">solve</text>
<text x="703" y="310" font-size="9" fill="#28324a" text-anchor="middle">trained</text>
<rect x="732" y="284" width="46" height="2" fill="#c9341a" opacity="0.85"/>
<text x="755" y="279" font-size="11" font-weight="700" fill="#0b1324" text-anchor="middle">0.01</text>
<text x="755" y="299" font-size="9" fill="#28324a" text-anchor="middle">solve</text>
<text x="755" y="310" font-size="9" fill="#28324a" text-anchor="middle">untr</text>
<line x1="524" y1="286" x2="784" y2="286" stroke="#33415c"/>
<text x="524" y="328" font-size="10" fill="#5a6b8c">reverse emerges only when prioritized;</text>
<text x="524" y="341" font-size="10" fill="#5a6b8c">same map plans forward, untrained can't.</text>
</svg>