<svg xmlns="http://www.w3.org/2000/svg" width="650" height="332" font-family="Segoe UI, Arial">
<rect width="650" height="332" fill="#ffffff"/>
<text x="26" y="24" font-size="15" font-weight="800" fill="#0b1324">Reward-triggered BTSP: place fields that ANTICIPATE the reward</text>
<text x="26" y="42" font-size="10.5" fill="#5b6b8c">fields sit upstream of the reward (predictive); vanishes with a symmetric kernel; grows with speed &#8212; emergent, not by construction</text>
<text x="60" y="54" font-size="11.5" font-weight="700" fill="#0b1324">(1) anticipatory shift</text>
<line x1="60" y1="66" x2="310" y2="66" stroke="#33415c" stroke-dasharray="3 3"/>
<text x="310" y="64" font-size="8.5" fill="#7787a6" text-anchor="end">0 = on reward</text>
<rect x="110" y="66" width="60" height="130.8" fill="#2ca25f" opacity="0.88"/>
<text x="140" y="210" font-size="11" font-weight="700" fill="#0b1324" text-anchor="middle">-0.23</text>
<text x="140" y="274" font-size="10" fill="#28324a" text-anchor="middle">BTSP (asym)</text>
<rect x="220" y="66" width="60" height="10.3" fill="#3182bd" opacity="0.88"/>
<text x="250" y="89" font-size="11" font-weight="700" fill="#0b1324" text-anchor="middle">+0.02</text>
<text x="250" y="274" font-size="10" fill="#28324a" text-anchor="middle">symmetric</text>
<text x="380" y="54" font-size="11.5" font-weight="700" fill="#0b1324">speed dependence (BTSP)</text>
<line x1="380" y1="66" x2="600.0" y2="66" stroke="#33415c" stroke-dasharray="3 3"/>
<rect x="392" y="66" width="49" height="89.7" fill="#2ca25f" opacity="0.85"/>
<text x="417" y="169" font-size="9" font-weight="700" fill="#0b1324" text-anchor="middle">-0.15</text>
<text x="417" y="274" font-size="9.5" fill="#28324a" text-anchor="middle">v=0.3</text>
<rect x="465" y="66" width="49" height="130.8" fill="#2ca25f" opacity="0.85"/>
<text x="490" y="210" font-size="9" font-weight="700" fill="#0b1324" text-anchor="middle">-0.23</text>
<text x="490" y="274" font-size="9.5" fill="#28324a" text-anchor="middle">v=0.7</text>
<rect x="539" y="66" width="49" height="107.6" fill="#2ca25f" opacity="0.85"/>
<text x="563" y="187" font-size="9" font-weight="700" fill="#0b1324" text-anchor="middle">-0.19</text>
<text x="563" y="274" font-size="9.5" fill="#28324a" text-anchor="middle">v=1.3</text>
<text x="380" y="292" font-size="9.5" fill="#5b6b8c">reward-gated over-rep 43.0x vs yoked 0.8x</text>
</svg>