<svg xmlns="http://www.w3.org/2000/svg" width="654" height="336" font-family="Segoe UI, Arial">
<rect width="654" height="336" fill="#ffffff"/>
<text x="26" y="24" font-size="15" font-weight="800" fill="#0b1324">The sleep triple-coupling selects &amp; times consolidation</text>
<text x="26" y="42" font-size="10.5" fill="#5b6b8c">nesting replay in SO&#8594;spindle windows makes consolidation SELECTIVE (tagged memories win the scarce windows) and TIMED &#8212; measured, not imposed</text>
<text x="60" y="54" font-size="11.5" font-weight="700" fill="#0b1324">(A) tagged-selectivity of consolidation</text>
<line x1="60" y1="258" x2="310" y2="258" stroke="#33415c"/>
<line x1="60" y1="120" x2="310" y2="120" stroke="#9aa6bd" stroke-dasharray="4 3"/>
<text x="310" y="117" font-size="8.5" fill="#7787a6" text-anchor="end">proportional floor (no selection)</text>
<rect x="84" y="80.0" width="52" height="178.0" fill="#2ca25f" opacity="0.9"/>
<text x="110" y="74" font-size="11" font-weight="700" fill="#0b1324" text-anchor="middle">0.99</text>
<text x="110" y="272" font-size="9" fill="#28324a" text-anchor="middle">COUPLED</text>
<rect x="158" y="118.0" width="52" height="140.0" fill="#e08214" opacity="0.9"/>
<text x="184" y="112" font-size="11" font-weight="700" fill="#0b1324" text-anchor="middle">0.78</text>
<text x="184" y="272" font-size="9" fill="#28324a" text-anchor="middle">uncoupled</text>
<rect x="232" y="120.5" width="52" height="137.5" fill="#c9341a" opacity="0.9"/>
<text x="258" y="114" font-size="11" font-weight="700" fill="#0b1324" text-anchor="middle">0.76</text>
<text x="258" y="272" font-size="9" fill="#28324a" text-anchor="middle">no-SO</text>
<text x="384" y="54" font-size="11.5" font-weight="700" fill="#0b1324">(B) replay that consolidates (matched count)</text>
<line x1="384" y1="258" x2="634" y2="258" stroke="#33415c"/>
<rect x="428" y="78.0" width="64" height="180.0" fill="#2ca25f" opacity="0.9"/>
<text x="460" y="72" font-size="11" font-weight="700" fill="#0b1324" text-anchor="middle">1.00</text>
<text x="460" y="271" font-size="8.5" fill="#28324a" text-anchor="middle">COUPLED</text>
<text x="460" y="281" font-size="8.5" fill="#28324a" text-anchor="middle">(timed)</text>
<rect x="528" y="168.0" width="64" height="90.0" fill="#e08214" opacity="0.9"/>
<text x="560" y="162" font-size="11" font-weight="700" fill="#0b1324" text-anchor="middle">0.50</text>
<text x="560" y="271" font-size="8.5" fill="#28324a" text-anchor="middle">uncoupled</text>
<text x="560" y="281" font-size="8.5" fill="#28324a" text-anchor="middle">(random)</text>
<text x="384" y="292" font-size="9.5" fill="#5b6b8c">uncoupled replay wastes events in cortical DOWN states; falsifier: no-SO collapses selection to the floor</text>
</svg>