<svg xmlns="http://www.w3.org/2000/svg" width="620" height="352" font-family="Segoe UI, Arial">
<rect width="620" height="352" fill="#ffffff"/>
<text x="26" y="26" font-size="15" font-weight="800" fill="#0b1324">Social space: a SELF map and an OTHER-agent map in one population</text>
<text x="26" y="44" font-size="10.5" fill="#5b6b8c">emergent social place cells (Danjo 2018, Omer 2018), with a self/other lesion double dissociation</text>
<line x1="56" y1="248" x2="290" y2="248" stroke="#33415c"/>
<rect x="56" y="206" width="52" height="42" fill="#3182bd" opacity="0.88"/>
<text x="82" y="201" font-size="11" font-weight="700" fill="#0b1324" text-anchor="middle">22%</text>
<text x="82" y="262" font-size="9.5" fill="#28324a" text-anchor="middle">self</text>
<rect x="134" y="211" width="52" height="37" fill="#e6550d" opacity="0.88"/>
<text x="160" y="206" font-size="11" font-weight="700" fill="#0b1324" text-anchor="middle">20%</text>
<text x="160" y="262" font-size="9.5" fill="#28324a" text-anchor="middle">other</text>
<rect x="212" y="168" width="52" height="80" fill="#756bb1" opacity="0.88"/>
<text x="238" y="163" font-size="11" font-weight="700" fill="#0b1324" text-anchor="middle">42%</text>
<text x="238" y="262" font-size="9.5" fill="#28324a" text-anchor="middle">conj.</text>
<text x="56" y="284" font-size="10" fill="#28324a">cell types (of active units)</text>
<line x1="350" y1="248" x2="500" y2="248" stroke="#33415c"/>
<text x="425" y="278" font-size="10.5" font-weight="700" fill="#28324a" text-anchor="middle">decode SELF</text>
<rect x="350" y="161.5" width="30" height="86.5" fill="#2ca25f" opacity="0.88"/>
<text x="365" y="158" font-size="8.5" font-weight="700" fill="#0b1324" text-anchor="middle">0.22</text>
<rect x="388" y="159.4" width="30" height="88.6" fill="#e6550d" opacity="0.88"/>
<text x="403" y="155" font-size="8.5" font-weight="700" fill="#0b1324" text-anchor="middle">0.22</text>
<rect x="426" y="89.7" width="30" height="158.3" fill="#3182bd" opacity="0.88"/>
<text x="441" y="86" font-size="8.5" font-weight="700" fill="#0b1324" text-anchor="middle">0.40</text>
<line x1="530" y1="248" x2="680" y2="248" stroke="#33415c"/>
<text x="605" y="278" font-size="10.5" font-weight="700" fill="#28324a" text-anchor="middle">decode OTHER</text>
<rect x="530" y="163.6" width="30" height="84.4" fill="#2ca25f" opacity="0.88"/>
<text x="545" y="160" font-size="8.5" font-weight="700" fill="#0b1324" text-anchor="middle">0.21</text>
<rect x="568" y="90.6" width="30" height="157.4" fill="#e6550d" opacity="0.88"/>
<text x="583" y="87" font-size="8.5" font-weight="700" fill="#0b1324" text-anchor="middle">0.40</text>
<rect x="606" y="163.1" width="30" height="84.9" fill="#3182bd" opacity="0.88"/>
<text x="621" y="159" font-size="8.5" font-weight="700" fill="#0b1324" text-anchor="middle">0.21</text>
<rect x="660" y="56" width="11" height="6" fill="#2ca25f"/><text x="675" y="62" font-size="9" fill="#28324a">intact</text>
<rect x="660" y="70" width="11" height="6" fill="#e6550d"/><text x="675" y="76" font-size="9" fill="#28324a">lesion OTHER</text>
<rect x="660" y="84" width="11" height="6" fill="#3182bd"/><text x="675" y="90" font-size="9" fill="#28324a">lesion SELF</text>
</svg>