<svg xmlns="http://www.w3.org/2000/svg" width="692" height="366" font-family="Segoe UI, Arial">
<rect width="692" height="366" fill="#ffffff"/>
<text x="28" y="26" font-size="15" font-weight="800" fill="#0b1324">Structural transfer: a space-trained code does relational inference (and its falsifiers)</text>
<line x1="56" y1="312.0" x2="636" y2="312.0" stroke="#33415c"/><line x1="56" y1="72" x2="56" y2="312.0" stroke="#33415c"/>
<line x1="56" y1="312.0" x2="636" y2="312.0" stroke="#eef2f8"/>
<text x="49" y="316.0" font-size="9" fill="#5b6b8c" text-anchor="end">0%</text>
<line x1="56" y1="252.0" x2="636" y2="252.0" stroke="#eef2f8"/>
<text x="49" y="256.0" font-size="9" fill="#5b6b8c" text-anchor="end">25%</text>
<line x1="56" y1="192.0" x2="636" y2="192.0" stroke="#eef2f8"/>
<text x="49" y="196.0" font-size="9" fill="#5b6b8c" text-anchor="end">50%</text>
<line x1="56" y1="132.0" x2="636" y2="132.0" stroke="#eef2f8"/>
<text x="49" y="136.0" font-size="9" fill="#5b6b8c" text-anchor="end">75%</text>
<line x1="56" y1="72.0" x2="636" y2="72.0" stroke="#eef2f8"/>
<text x="49" y="76.0" font-size="9" fill="#5b6b8c" text-anchor="end">100%</text>
<line x1="56" y1="192.0" x2="636" y2="192.0" stroke="#c9341a" stroke-dasharray="4,3" opacity="0.5"/>
<text x="636" y="189.0" font-size="8.5" fill="#c9341a" text-anchor="end">chance</text>
<rect x="69.0" y="111.5" width="90" height="200.5" fill="#2ca25f" opacity="0.85"/>
<line x1="114.0" y1="109.5" x2="114.0" y2="113.4" stroke="#0b1324" stroke-width="1.5"/>
<text x="114.0" y="104.5" font-size="11" font-weight="700" fill="#0b1324" text-anchor="middle">84%</text>
<text x="114.0" y="328.0" font-size="8.7" fill="#28324a" text-anchor="middle">transitive inference</text>
<text x="114.0" y="339.0" font-size="8.7" fill="#28324a" text-anchor="middle">(untrained far pairs)</text>
<rect x="185.0" y="142.6" width="90" height="169.4" fill="#9aa5b8" opacity="0.85"/>
<line x1="230.0" y1="138.0" x2="230.0" y2="147.1" stroke="#0b1324" stroke-width="1.5"/>
<text x="230.0" y="135.6" font-size="11" font-weight="700" fill="#0b1324" text-anchor="middle">71%</text>
<text x="230.0" y="328.0" font-size="8.7" fill="#28324a" text-anchor="middle">adjacent (trained)</text>
<rect x="301.0" y="122.5" width="90" height="189.5" fill="#3b528b" opacity="0.85"/>
<line x1="346.0" y1="121.0" x2="346.0" y2="124.0" stroke="#0b1324" stroke-width="1.5"/>
<text x="346.0" y="115.5" font-size="11" font-weight="700" fill="#0b1324" text-anchor="middle">79%</text>
<text x="346.0" y="328.0" font-size="8.7" fill="#28324a" text-anchor="middle">schema transfer</text>
<text x="346.0" y="339.0" font-size="8.7" fill="#28324a" text-anchor="middle">(new items)</text>
<rect x="417.0" y="162.5" width="90" height="149.5" fill="#c9341a" opacity="0.85"/>
<line x1="462.0" y1="153.5" x2="462.0" y2="171.5" stroke="#0b1324" stroke-width="1.5"/>
<text x="462.0" y="155.5" font-size="11" font-weight="700" fill="#0b1324" text-anchor="middle">62%</text>
<text x="462.0" y="328.0" font-size="8.7" fill="#28324a" text-anchor="middle">CONTROL: shuffled</text>
<text x="462.0" y="339.0" font-size="8.7" fill="#28324a" text-anchor="middle">positions</text>
<rect x="533.0" y="154.6" width="90" height="157.4" fill="#e6550d" opacity="0.85"/>
<line x1="578.0" y1="153.1" x2="578.0" y2="156.1" stroke="#0b1324" stroke-width="1.5"/>
<text x="578.0" y="147.6" font-size="11" font-weight="700" fill="#0b1324" text-anchor="middle">66%</text>
<text x="578.0" y="328.0" font-size="8.7" fill="#28324a" text-anchor="middle">CONTROL: scrambled</text>
<text x="578.0" y="339.0" font-size="8.7" fill="#28324a" text-anchor="middle">2nd item</text>
</svg>