<svg xmlns="http://www.w3.org/2000/svg" width="714" height="322" font-family="Segoe UI, Arial">
<rect width="714" height="322" fill="#ffffff"/>
<text x="20" y="26" font-size="15" font-weight="800" fill="#0b1324">The predictive map (Successor Representation): topology, grid eigenvectors, barrier planning</text>
<text x="20" y="56" font-size="11" font-weight="700" fill="#28324a">SR field of the goal (wraps the wall)</text>
<rect x="20" y="64" width="18.5" height="18.5" fill="#3b2562"/>
<rect x="38" y="64" width="18.5" height="18.5" fill="#3b2863"/>
<rect x="56" y="64" width="18.5" height="18.5" fill="#392e66"/>
<rect x="74" y="64" width="18.5" height="18.5" fill="#373569"/>
<rect x="92" y="64" width="18.5" height="18.5" fill="#36386a"/>
<rect x="110" y="64" width="18.5" height="18.5" fill="#383268"/>
<rect x="128" y="64" width="18.5" height="18.5" fill="#3a2864"/>
<rect x="146" y="64" width="18.5" height="18.5" fill="#3d1f60"/>
<rect x="164" y="64" width="18.5" height="18.5" fill="#3e185d"/>
<rect x="182" y="64" width="18.5" height="18.5" fill="#40135b"/>
<rect x="200" y="64" width="18.5" height="18.5" fill="#40115a"/>
<rect x="20" y="82" width="18.5" height="18.5" fill="#3b2763"/>
<rect x="38" y="82" width="18.5" height="18.5" fill="#3a2b65"/>
<rect x="56" y="82" width="18.5" height="18.5" fill="#383468"/>
<rect x="74" y="82" width="18.5" height="18.5" fill="#34416d"/>
<rect x="92" y="82" width="18.5" height="18.5" fill="#324a71"/>
<rect x="110" y="82" width="18.5" height="18.5" fill="#353e6c"/>
<rect x="128" y="82" width="18.5" height="18.5" fill="#392f66"/>
<rect x="146" y="82" width="18.5" height="18.5" fill="#3c2261"/>
<rect x="164" y="82" width="18.5" height="18.5" fill="#3e195d"/>
<rect x="182" y="82" width="18.5" height="18.5" fill="#40135b"/>
<rect x="200" y="82" width="18.5" height="18.5" fill="#40115a"/>
<rect x="20" y="100" width="18.5" height="18.5" fill="#3a2b65"/>
<rect x="38" y="100" width="18.5" height="18.5" fill="#383167"/>
<rect x="56" y="100" width="18.5" height="18.5" fill="#34416e"/>
<rect x="74" y="100" width="18.5" height="18.5" fill="#2d5e79"/>
<rect x="92" y="100" width="18.5" height="18.5" fill="#248287"/>
<rect x="110" y="100" width="18.5" height="18.5" fill="#2e5c78"/>
<rect x="128" y="100" width="18.5" height="18.5" fill="#363c6b"/>
<rect x="146" y="100" width="18.5" height="18.5" fill="#3b2763"/>
<rect x="164" y="100" width="18.5" height="18.5" fill="#3e1b5e"/>
<rect x="182" y="100" width="18.5" height="18.5" fill="#3f155c"/>
<rect x="200" y="100" width="18.5" height="18.5" fill="#40125b"/>
<rect x="20" y="118" width="18.5" height="18.5" fill="#392f66"/>
<rect x="38" y="118" width="18.5" height="18.5" fill="#37386a"/>
<rect x="56" y="118" width="18.5" height="18.5" fill="#315073"/>
<rect x="74" y="118" width="18.5" height="18.5" fill="#23888a"/>
<rect x="92" y="118" width="18.5" height="18.5" fill="#fde725"/>
<rect x="110" y="118" width="18.5" height="18.5" fill="#248689"/>
<rect x="128" y="118" width="18.5" height="18.5" fill="#324a71"/>
<rect x="146" y="118" width="18.5" height="18.5" fill="#392d66"/>
<rect x="164" y="118" width="18.5" height="18.5" fill="#3d1e60"/>
<rect x="182" y="118" width="18.5" height="18.5" fill="#3f165c"/>
<rect x="200" y="118" width="18.5" height="18.5" fill="#40135b"/>
<rect x="20" y="136" width="18.5" height="18.5" fill="#383268"/>
<rect x="38" y="136" width="18.5" height="18.5" fill="#363b6b"/>
<rect x="56" y="136" width="18.5" height="18.5" fill="#315073"/>
<rect x="74" y="136" width="18.5" height="18.5" fill="#297181"/>
<rect x="92" y="136" width="18.5" height="18.5" fill="#228c8b"/>
<rect x="110" y="136" width="18.5" height="18.5" fill="#296e7f"/>
<rect x="128" y="136" width="18.5" height="18.5" fill="#324971"/>
<rect x="146" y="136" width="18.5" height="18.5" fill="#393067"/>
<rect x="164" y="136" width="18.5" height="18.5" fill="#3c2060"/>
<rect x="182" y="136" width="18.5" height="18.5" fill="#3e185d"/>
<rect x="200" y="136" width="18.5" height="18.5" fill="#3f145c"/>
<rect x="20" y="154" width="18" height="18" fill="#0b1324"/>
<rect x="38" y="154" width="18" height="18" fill="#0b1324"/>
<rect x="56" y="154" width="18" height="18" fill="#0b1324"/>
<rect x="74" y="154" width="18" height="18" fill="#0b1324"/>
<rect x="92" y="154" width="18.5" height="18.5" fill="#315074"/>
<rect x="110" y="154" width="18" height="18" fill="#0b1324"/>
<rect x="128" y="154" width="18" height="18" fill="#0b1324"/>
<rect x="146" y="154" width="18" height="18" fill="#0b1324"/>
<rect x="164" y="154" width="18" height="18" fill="#0b1324"/>
<rect x="182" y="154" width="18" height="18" fill="#0b1324"/>
<rect x="200" y="154" width="18" height="18" fill="#0b1324"/>
<rect x="20" y="172" width="18.5" height="18.5" fill="#430455"/>
<rect x="38" y="172" width="18.5" height="18.5" fill="#430656"/>
<rect x="56" y="172" width="18.5" height="18.5" fill="#420857"/>
<rect x="74" y="172" width="18.5" height="18.5" fill="#410f5a"/>
<rect x="92" y="172" width="18.5" height="18.5" fill="#3d1d5f"/>
<rect x="110" y="172" width="18.5" height="18.5" fill="#410f59"/>
<rect x="128" y="172" width="18.5" height="18.5" fill="#420857"/>
<rect x="146" y="172" width="18.5" height="18.5" fill="#430455"/>
<rect x="164" y="172" width="18.5" height="18.5" fill="#440355"/>
<rect x="182" y="172" width="18.5" height="18.5" fill="#440254"/>
<rect x="200" y="172" width="18.5" height="18.5" fill="#440154"/>
<rect x="20" y="190" width="18.5" height="18.5" fill="#430455"/>
<rect x="38" y="190" width="18.5" height="18.5" fill="#430555"/>
<rect x="56" y="190" width="18.5" height="18.5" fill="#430656"/>
<rect x="74" y="190" width="18.5" height="18.5" fill="#420a57"/>
<rect x="92" y="190" width="18.5" height="18.5" fill="#410d59"/>
<rect x="110" y="190" width="18.5" height="18.5" fill="#420957"/>
<rect x="128" y="190" width="18.5" height="18.5" fill="#430656"/>
<rect x="146" y="190" width="18.5" height="18.5" fill="#430455"/>
<rect x="164" y="190" width="18.5" height="18.5" fill="#440255"/>
<rect x="182" y="190" width="18.5" height="18.5" fill="#440254"/>
<rect x="200" y="190" width="18.5" height="18.5" fill="#440154"/>
<rect x="20" y="208" width="18.5" height="18.5" fill="#430355"/>
<rect x="38" y="208" width="18.5" height="18.5" fill="#430455"/>
<rect x="56" y="208" width="18.5" height="18.5" fill="#430555"/>
<rect x="74" y="208" width="18.5" height="18.5" fill="#430656"/>
<rect x="92" y="208" width="18.5" height="18.5" fill="#430756"/>
<rect x="110" y="208" width="18.5" height="18.5" fill="#430656"/>
<rect x="128" y="208" width="18.5" height="18.5" fill="#430455"/>
<rect x="146" y="208" width="18.5" height="18.5" fill="#440355"/>
<rect x="164" y="208" width="18.5" height="18.5" fill="#440254"/>
<rect x="182" y="208" width="18.5" height="18.5" fill="#440154"/>
<rect x="200" y="208" width="18.5" height="18.5" fill="#440154"/>
<rect x="20" y="226" width="18.5" height="18.5" fill="#440355"/>
<rect x="38" y="226" width="18.5" height="18.5" fill="#440355"/>
<rect x="56" y="226" width="18.5" height="18.5" fill="#430355"/>
<rect x="74" y="226" width="18.5" height="18.5" fill="#430455"/>
<rect x="92" y="226" width="18.5" height="18.5" fill="#430455"/>
<rect x="110" y="226" width="18.5" height="18.5" fill="#430455"/>
<rect x="128" y="226" width="18.5" height="18.5" fill="#440355"/>
<rect x="146" y="226" width="18.5" height="18.5" fill="#440254"/>
<rect x="164" y="226" width="18.5" height="18.5" fill="#440254"/>
<rect x="182" y="226" width="18.5" height="18.5" fill="#440154"/>
<rect x="200" y="226" width="18.5" height="18.5" fill="#440154"/>
<rect x="20" y="244" width="18.5" height="18.5" fill="#440255"/>
<rect x="38" y="244" width="18.5" height="18.5" fill="#440355"/>
<rect x="56" y="244" width="18.5" height="18.5" fill="#440355"/>
<rect x="74" y="244" width="18.5" height="18.5" fill="#430355"/>
<rect x="92" y="244" width="18.5" height="18.5" fill="#430355"/>
<rect x="110" y="244" width="18.5" height="18.5" fill="#440355"/>
<rect x="128" y="244" width="18.5" height="18.5" fill="#440255"/>
<rect x="146" y="244" width="18.5" height="18.5" fill="#440254"/>
<rect x="164" y="244" width="18.5" height="18.5" fill="#440154"/>
<rect x="182" y="244" width="18.5" height="18.5" fill="#440154"/>
<rect x="200" y="244" width="18.5" height="18.5" fill="#440154"/>
<circle cx="101" cy="127" r="4" fill="#de2d26" stroke="#fff"/>
<text x="242" y="56" font-size="11" font-weight="700" fill="#28324a">SR eigenvector (grid-like, open)</text>
<rect x="242" y="64" width="18.5" height="18.5" fill="#3d1d5f"/>
<rect x="260" y="64" width="18.5" height="18.5" fill="#410e59"/>
<rect x="278" y="64" width="18.5" height="18.5" fill="#3c2261"/>
<rect x="296" y="64" width="18.5" height="18.5" fill="#35406d"/>
<rect x="314" y="64" width="18.5" height="18.5" fill="#2b667c"/>
<rect x="332" y="64" width="18.5" height="18.5" fill="#21908d"/>
<rect x="350" y="64" width="18.5" height="18.5" fill="#62aa6e"/>
<rect x="368" y="64" width="18.5" height="18.5" fill="#9cc153"/>
<rect x="386" y="64" width="18.5" height="18.5" fill="#cbd33d"/>
<rect x="404" y="64" width="18.5" height="18.5" fill="#e9df2e"/>
<rect x="422" y="64" width="18.5" height="18.5" fill="#d1d63a"/>
<rect x="242" y="82" width="18.5" height="18.5" fill="#410e59"/>
<rect x="260" y="82" width="18.5" height="18.5" fill="#440154"/>
<rect x="278" y="82" width="18.5" height="18.5" fill="#3f175d"/>
<rect x="296" y="82" width="18.5" height="18.5" fill="#37386a"/>
<rect x="314" y="82" width="18.5" height="18.5" fill="#2c627b"/>
<rect x="332" y="82" width="18.5" height="18.5" fill="#21908d"/>
<rect x="350" y="82" width="18.5" height="18.5" fill="#68ac6b"/>
<rect x="368" y="82" width="18.5" height="18.5" fill="#a8c64d"/>
<rect x="386" y="82" width="18.5" height="18.5" fill="#dcda35"/>
<rect x="404" y="82" width="18.5" height="18.5" fill="#fde725"/>
<rect x="422" y="82" width="18.5" height="18.5" fill="#e9df2e"/>
<rect x="242" y="100" width="18.5" height="18.5" fill="#3c2261"/>
<rect x="260" y="100" width="18.5" height="18.5" fill="#3f175d"/>
<rect x="278" y="100" width="18.5" height="18.5" fill="#3a2964"/>
<rect x="296" y="100" width="18.5" height="18.5" fill="#33456f"/>
<rect x="314" y="100" width="18.5" height="18.5" fill="#2b697d"/>
<rect x="332" y="100" width="18.5" height="18.5" fill="#21908d"/>
<rect x="350" y="100" width="18.5" height="18.5" fill="#5da870"/>
<rect x="368" y="100" width="18.5" height="18.5" fill="#94bd57"/>
<rect x="386" y="100" width="18.5" height="18.5" fill="#bfcf42"/>
<rect x="404" y="100" width="18.5" height="18.5" fill="#dcda35"/>
<rect x="422" y="100" width="18.5" height="18.5" fill="#cbd33d"/>
<rect x="242" y="118" width="18.5" height="18.5" fill="#35406d"/>
<rect x="260" y="118" width="18.5" height="18.5" fill="#37386a"/>
<rect x="278" y="118" width="18.5" height="18.5" fill="#33456f"/>
<rect x="296" y="118" width="18.5" height="18.5" fill="#2e5a77"/>
<rect x="314" y="118" width="18.5" height="18.5" fill="#287482"/>
<rect x="332" y="118" width="18.5" height="18.5" fill="#21908d"/>
<rect x="350" y="118" width="18.5" height="18.5" fill="#4da178"/>
<rect x="368" y="118" width="18.5" height="18.5" fill="#74b166"/>
<rect x="386" y="118" width="18.5" height="18.5" fill="#94bd57"/>
<rect x="404" y="118" width="18.5" height="18.5" fill="#a8c64d"/>
<rect x="422" y="118" width="18.5" height="18.5" fill="#9cc153"/>
<rect x="242" y="136" width="18.5" height="18.5" fill="#2b667c"/>
<rect x="260" y="136" width="18.5" height="18.5" fill="#2c627b"/>
<rect x="278" y="136" width="18.5" height="18.5" fill="#2b697d"/>
<rect x="296" y="136" width="18.5" height="18.5" fill="#287482"/>
<rect x="314" y="136" width="18.5" height="18.5" fill="#258187"/>
<rect x="332" y="136" width="18.5" height="18.5" fill="#21908d"/>
<rect x="350" y="136" width="18.5" height="18.5" fill="#389982"/>
<rect x="368" y="136" width="18.5" height="18.5" fill="#4da178"/>
<rect x="386" y="136" width="18.5" height="18.5" fill="#5da870"/>
<rect x="404" y="136" width="18.5" height="18.5" fill="#68ac6b"/>
<rect x="422" y="136" width="18.5" height="18.5" fill="#62aa6e"/>
<rect x="242" y="154" width="18.5" height="18.5" fill="#21908d"/>
<rect x="260" y="154" width="18.5" height="18.5" fill="#21908d"/>
<rect x="278" y="154" width="18.5" height="18.5" fill="#21908d"/>
<rect x="296" y="154" width="18.5" height="18.5" fill="#21908d"/>
<rect x="314" y="154" width="18.5" height="18.5" fill="#21908d"/>
<rect x="332" y="154" width="18.5" height="18.5" fill="#21908d"/>
<rect x="350" y="154" width="18.5" height="18.5" fill="#21908d"/>
<rect x="368" y="154" width="18.5" height="18.5" fill="#21908d"/>
<rect x="386" y="154" width="18.5" height="18.5" fill="#21908d"/>
<rect x="404" y="154" width="18.5" height="18.5" fill="#21908d"/>
<rect x="422" y="154" width="18.5" height="18.5" fill="#21908d"/>
<rect x="242" y="172" width="18.5" height="18.5" fill="#62aa6e"/>
<rect x="260" y="172" width="18.5" height="18.5" fill="#68ac6b"/>
<rect x="278" y="172" width="18.5" height="18.5" fill="#5da870"/>
<rect x="296" y="172" width="18.5" height="18.5" fill="#4da178"/>
<rect x="314" y="172" width="18.5" height="18.5" fill="#389982"/>
<rect x="332" y="172" width="18.5" height="18.5" fill="#21908d"/>
<rect x="350" y="172" width="18.5" height="18.5" fill="#258187"/>
<rect x="368" y="172" width="18.5" height="18.5" fill="#287482"/>
<rect x="386" y="172" width="18.5" height="18.5" fill="#2b697d"/>
<rect x="404" y="172" width="18.5" height="18.5" fill="#2c627b"/>
<rect x="422" y="172" width="18.5" height="18.5" fill="#2b667c"/>
<rect x="242" y="190" width="18.5" height="18.5" fill="#9cc153"/>
<rect x="260" y="190" width="18.5" height="18.5" fill="#a8c64d"/>
<rect x="278" y="190" width="18.5" height="18.5" fill="#94bd57"/>
<rect x="296" y="190" width="18.5" height="18.5" fill="#74b166"/>
<rect x="314" y="190" width="18.5" height="18.5" fill="#4da178"/>
<rect x="332" y="190" width="18.5" height="18.5" fill="#21908d"/>
<rect x="350" y="190" width="18.5" height="18.5" fill="#287482"/>
<rect x="368" y="190" width="18.5" height="18.5" fill="#2e5a77"/>
<rect x="386" y="190" width="18.5" height="18.5" fill="#33456f"/>
<rect x="404" y="190" width="18.5" height="18.5" fill="#37386a"/>
<rect x="422" y="190" width="18.5" height="18.5" fill="#35406d"/>
<rect x="242" y="208" width="18.5" height="18.5" fill="#cbd33d"/>
<rect x="260" y="208" width="18.5" height="18.5" fill="#dcda35"/>
<rect x="278" y="208" width="18.5" height="18.5" fill="#bfcf42"/>
<rect x="296" y="208" width="18.5" height="18.5" fill="#94bd57"/>
<rect x="314" y="208" width="18.5" height="18.5" fill="#5da870"/>
<rect x="332" y="208" width="18.5" height="18.5" fill="#21908d"/>
<rect x="350" y="208" width="18.5" height="18.5" fill="#2b697d"/>
<rect x="368" y="208" width="18.5" height="18.5" fill="#33456f"/>
<rect x="386" y="208" width="18.5" height="18.5" fill="#3a2964"/>
<rect x="404" y="208" width="18.5" height="18.5" fill="#3f175d"/>
<rect x="422" y="208" width="18.5" height="18.5" fill="#3c2261"/>
<rect x="242" y="226" width="18.5" height="18.5" fill="#e9df2e"/>
<rect x="260" y="226" width="18.5" height="18.5" fill="#fde725"/>
<rect x="278" y="226" width="18.5" height="18.5" fill="#dcda35"/>
<rect x="296" y="226" width="18.5" height="18.5" fill="#a8c64d"/>
<rect x="314" y="226" width="18.5" height="18.5" fill="#68ac6b"/>
<rect x="332" y="226" width="18.5" height="18.5" fill="#21908d"/>
<rect x="350" y="226" width="18.5" height="18.5" fill="#2c627b"/>
<rect x="368" y="226" width="18.5" height="18.5" fill="#37386a"/>
<rect x="386" y="226" width="18.5" height="18.5" fill="#3f175d"/>
<rect x="404" y="226" width="18.5" height="18.5" fill="#440154"/>
<rect x="422" y="226" width="18.5" height="18.5" fill="#410e59"/>
<rect x="242" y="244" width="18.5" height="18.5" fill="#d1d63a"/>
<rect x="260" y="244" width="18.5" height="18.5" fill="#e9df2e"/>
<rect x="278" y="244" width="18.5" height="18.5" fill="#cbd33d"/>
<rect x="296" y="244" width="18.5" height="18.5" fill="#9cc153"/>
<rect x="314" y="244" width="18.5" height="18.5" fill="#62aa6e"/>
<rect x="332" y="244" width="18.5" height="18.5" fill="#21908d"/>
<rect x="350" y="244" width="18.5" height="18.5" fill="#2b667c"/>
<rect x="368" y="244" width="18.5" height="18.5" fill="#35406d"/>
<rect x="386" y="244" width="18.5" height="18.5" fill="#3c2261"/>
<rect x="404" y="244" width="18.5" height="18.5" fill="#410e59"/>
<rect x="422" y="244" width="18.5" height="18.5" fill="#3d1d5f"/>
<text x="474" y="56" font-size="11" font-weight="700" fill="#28324a">barrier planning</text>
<rect x="474" y="64" width="60" height="198" fill="#2ca25f" opacity="0.85"/>
<text x="504" y="58" font-size="12" font-weight="700" fill="#0b1324" text-anchor="middle">100%</text>
<text x="504" y="276" font-size="10" fill="#28324a" text-anchor="middle">SR</text>
<rect x="558" y="140" width="60" height="122" fill="#c9341a" opacity="0.85"/>
<text x="588" y="134" font-size="12" font-weight="700" fill="#0b1324" text-anchor="middle">62%</text>
<text x="588" y="276" font-size="10" fill="#28324a" text-anchor="middle">Euclid</text>
<line x1="474" y1="262" x2="618" y2="262" stroke="#33415c"/>
</svg>